STARTFONT 2.1
FONT -Gohu-Gohufont-Medium-R-Normal--14-100-100-100-C-80-ISO10646-1
SIZE 14 100 100
FONTBOUNDINGBOX 8 14 0 -3
COMMENT "Generated by fontforge, http://fontforge.sourceforge.net"
COMMENT "Copyright by Hugo Chargois"
COMMENT "Licensed under the WTFPL"
STARTPROPERTIES 31
FOUNDRY "Gohu"
FAMILY_NAME "GohuFont"
WEIGHT_NAME "Medium"
SLANT "R"
SETWIDTH_NAME "Normal"
ADD_STYLE_NAME ""
PIXEL_SIZE 14
POINT_SIZE 100
RESOLUTION_X 100
RESOLUTION_Y 100
SPACING "C"
AVERAGE_WIDTH 80
CHARSET_REGISTRY "ISO10646"
CHARSET_ENCODING "1"
FONTNAME_REGISTRY ""
FONT_NAME "GohuFont"
FACE_NAME "GohuFont"
FONT_VERSION "001.000"
FONT_ASCENT 11
FONT_DESCENT 3
UNDERLINE_POSITION -1
UNDERLINE_THICKNESS 1
X_HEIGHT 7
CAP_HEIGHT 9
RAW_ASCENT 785
RAW_DESCENT 215
NORM_SPACE 8
FIGURE_WIDTH 8
AVG_LOWERCASE_WIDTH 80
AVG_UPPERCASE_WIDTH "80"
_GBDFED_INFO "Edited with gbdfed 1.6."
ENDPROPERTIES
CHARS 853
STARTCHAR space
ENCODING 32
SWIDTH 411 0
DWIDTH 8 0
BBX 1 1 7 -3
BITMAP
00
ENDCHAR
STARTCHAR exclam
ENCODING 33
SWIDTH 411 0
DWIDTH 8 0
BBX 1 10 3 0
BITMAP
80
80
80
80
80
80
80
00
80
80
ENDCHAR
STARTCHAR quotedbl
ENCODING 34
SWIDTH 411 0
DWIDTH 8 0
BBX 4 3 2 7
BITMAP
90
90
90
ENDCHAR
STARTCHAR numbersign
ENCODING 35
SWIDTH 411 0
DWIDTH 8 0
BBX 7 10 0 0
BITMAP
28
28
28
FE
28
28
FE
28
28
28
ENDCHAR
STARTCHAR dollar
ENCODING 36
SWIDTH 411 0
DWIDTH 8 0
BBX 7 13 0 -2
BITMAP
10
10
7C
92
90
90
7C
12
12
92
7C
10
10
ENDCHAR
STARTCHAR percent
ENCODING 37
SWIDTH 411 0
DWIDTH 8 0
BBX 7 10 0 -1
BITMAP
64
94
68
08
10
10
20
2C
52
4C
ENDCHAR
STARTCHAR ampersand
ENCODING 38
SWIDTH 411 0
DWIDTH 8 0
BBX 6 10 1 0
BITMAP
30
48
48
30
60
94
88
88
88
74
ENDCHAR
STARTCHAR quotesingle
ENCODING 39
SWIDTH 411 0
DWIDTH 8 0
BBX 1 4 3 6
BITMAP
80
80
80
80
ENDCHAR
STARTCHAR parenleft
ENCODING 40
SWIDTH 411 0
DWIDTH 8 0
BBX 4 12 1 -2
BITMAP
10
20
40
40
80
80
80
80
40
40
20
10
ENDCHAR
STARTCHAR parenright
ENCODING 41
SWIDTH 411 0
DWIDTH 8 0
BBX 4 12 2 -2
BITMAP
80
40
20
20
10
10
10
10
20
20
40
80
ENDCHAR
STARTCHAR asterisk
ENCODING 42
SWIDTH 411 0
DWIDTH 8 0
BBX 7 7 0 1
BITMAP
10
92
54
38
54
92
10
ENDCHAR
STARTCHAR plus
ENCODING 43
SWIDTH 411 0
DWIDTH 8 0
BBX 7 7 0 1
BITMAP
10
10
10
FE
10
10
10
ENDCHAR
STARTCHAR comma
ENCODING 44
SWIDTH 411 0
DWIDTH 8 0
BBX 2 4 2 -2
BITMAP
C0
C0
40
80
ENDCHAR
STARTCHAR hyphen
ENCODING 45
SWIDTH 411 0
DWIDTH 8 0
BBX 6 1 1 4
BITMAP
FC
ENDCHAR
STARTCHAR period
ENCODING 46
SWIDTH 411 0
DWIDTH 8 0
BBX 2 2 2 0
BITMAP
C0
C0
ENDCHAR
STARTCHAR slash
ENCODING 47
SWIDTH 411 0
DWIDTH 8 0
BBX 6 12 1 -1
BITMAP
04
04
08
08
10
10
20
20
40
40
80
80
ENDCHAR
STARTCHAR zero
ENCODING 48
SWIDTH 411 0
DWIDTH 8 0
BBX 6 9 1 0
BITMAP
78
84
8C
94
A4
C4
84
84
78
ENDCHAR
STARTCHAR one
ENCODING 49
SWIDTH 411 0
DWIDTH 8 0
BBX 4 9 1 0
BITMAP
10
30
50
90
10
10
10
10
10
ENDCHAR
STARTCHAR two
ENCODING 50
SWIDTH 411 0
DWIDTH 8 0
BBX 6 9 1 0
BITMAP
78
84
84
08
10
20
40
80
FC
ENDCHAR
STARTCHAR three
ENCODING 51
SWIDTH 411 0
DWIDTH 8 0
BBX 6 9 1 0
BITMAP
78
84
04
04
38
04
04
84
78
ENDCHAR
STARTCHAR four
ENCODING 52
SWIDTH 411 0
DWIDTH 8 0
BBX 6 9 1 0
BITMAP
08
18
28
48
88
FC
08
08
08
ENDCHAR
STARTCHAR five
ENCODING 53
SWIDTH 411 0
DWIDTH 8 0
BBX 6 9 1 0
BITMAP
FC
80
80
F8
04
04
04
84
78
ENDCHAR
STARTCHAR six
ENCODING 54
SWIDTH 411 0
DWIDTH 8 0
BBX 6 9 1 0
BITMAP
78
80
80
F8
84
84
84
84
78
ENDCHAR
STARTCHAR seven
ENCODING 55
SWIDTH 411 0
DWIDTH 8 0
BBX 6 9 1 0
BITMAP
FC
04
08
08
10
10
20
20
20
ENDCHAR
STARTCHAR eight
ENCODING 56
SWIDTH 411 0
DWIDTH 8 0
BBX 6 9 1 0
BITMAP
78
84
84
84
78
84
84
84
78
ENDCHAR
STARTCHAR nine
ENCODING 57
SWIDTH 411 0
DWIDTH 8 0
BBX 6 9 1 0
BITMAP
78
84
84
84
7C
04
04
08
70
ENDCHAR
STARTCHAR colon
ENCODING 58
SWIDTH 411 0
DWIDTH 8 0
BBX 2 7 3 0
BITMAP
C0
C0
00
00
00
C0
C0
ENDCHAR
STARTCHAR semicolon
ENCODING 59
SWIDTH 411 0
DWIDTH 8 0
BBX 2 9 2 -2
BITMAP
C0
C0
00
00
00
C0
C0
40
80
ENDCHAR
STARTCHAR less
ENCODING 60
SWIDTH 411 0
DWIDTH 8 0
BBX 5 9 1 -1
BITMAP
08
10
20
40
80
40
20
10
08
ENDCHAR
STARTCHAR equal
ENCODING 61
SWIDTH 411 0
DWIDTH 8 0
BBX 6 5 1 2
BITMAP
FC
00
00
00
FC
ENDCHAR
STARTCHAR greater
ENCODING 62
SWIDTH 411 0
DWIDTH 8 0
BBX 5 9 1 -1
BITMAP
80
40
20
10
08
10
20
40
80
ENDCHAR
STARTCHAR question
ENCODING 63
SWIDTH 411 0
DWIDTH 8 0
BBX 6 10 1 0
BITMAP
78
84
04
04
08
10
20
00
20
20
ENDCHAR
STARTCHAR at
ENCODING 64
SWIDTH 411 0
DWIDTH 8 0
BBX 7 10 0 0
BITMAP
7C
82
9E
A2
A2
A2
A6
9A
80
7E
ENDCHAR
STARTCHAR A
ENCODING 65
SWIDTH 411 0
DWIDTH 8 0
BBX 6 9 1 0
BITMAP
78
84
84
84
FC
84
84
84
84
ENDCHAR
STARTCHAR B
ENCODING 66
SWIDTH 411 0
DWIDTH 8 0
BBX 6 9 1 0
BITMAP
F8
84
84
84
F8
84
84
84
F8
ENDCHAR
STARTCHAR C
ENCODING 67
SWIDTH 411 0
DWIDTH 8 0
BBX 6 9 1 0
BITMAP
78
84
80
80
80
80
80
84
78
ENDCHAR
STARTCHAR D
ENCODING 68
SWIDTH 411 0
DWIDTH 8 0
BBX 6 9 1 0
BITMAP
F0
88
84
84
84
84
84
88
F0
ENDCHAR
STARTCHAR E
ENCODING 69
SWIDTH 411 0
DWIDTH 8 0
BBX 6 9 1 0
BITMAP
FC
80
80
80
F0
80
80
80
FC
ENDCHAR
STARTCHAR F
ENCODING 70
SWIDTH 411 0
DWIDTH 8 0
BBX 6 9 1 0
BITMAP
FC
80
80
80
F0
80
80
80
80
ENDCHAR
STARTCHAR G
ENCODING 71
SWIDTH 411 0
DWIDTH 8 0
BBX 6 9 1 0
BITMAP
78
84
80
80
9C
84
84
84
78
ENDCHAR
STARTCHAR H
ENCODING 72
SWIDTH 411 0
DWIDTH 8 0
BBX 6 9 1 0
BITMAP
84
84
84
84
FC
84
84
84
84
ENDCHAR
STARTCHAR I
ENCODING 73
SWIDTH 411 0
DWIDTH 8 0
BBX 3 9 2 0
BITMAP
E0
40
40
40
40
40
40
40
E0
ENDCHAR
STARTCHAR J
ENCODING 74
SWIDTH 411 0
DWIDTH 8 0
BBX 6 9 1 0
BITMAP
04
04
04
04
04
04
84
84
78
ENDCHAR
STARTCHAR K
ENCODING 75
SWIDTH 411 0
DWIDTH 8 0
BBX 6 9 1 0
BITMAP
84
88
90
A0
C0
A0
90
88
84
ENDCHAR
STARTCHAR L
ENCODING 76
SWIDTH 411 0
DWIDTH 8 0
BBX 6 9 1 0
BITMAP
80
80
80
80
80
80
80
80
FC
ENDCHAR
STARTCHAR M
ENCODING 77
SWIDTH 411 0
DWIDTH 8 0
BBX 7 9 0 0
BITMAP
82
C6
AA
92
92
82
82
82
82
ENDCHAR
STARTCHAR N
ENCODING 78
SWIDTH 411 0
DWIDTH 8 0
BBX 6 9 1 0
BITMAP
84
C4
C4
A4
A4
94
94
8C
8C
ENDCHAR
STARTCHAR O
ENCODING 79
SWIDTH 411 0
DWIDTH 8 0
BBX 6 9 1 0
BITMAP
78
84
84
84
84
84
84
84
78
ENDCHAR
STARTCHAR P
ENCODING 80
SWIDTH 411 0
DWIDTH 8 0
BBX 6 9 1 0
BITMAP
F8
84
84
84
F8
80
80
80
80
ENDCHAR
STARTCHAR Q
ENCODING 81
SWIDTH 411 0
DWIDTH 8 0
BBX 6 10 1 -1
BITMAP
78
84
84
84
84
94
94
88
74
04
ENDCHAR
STARTCHAR R
ENCODING 82
SWIDTH 411 0
DWIDTH 8 0
BBX 6 9 1 0
BITMAP
F8
84
84
84
F8
90
88
84
84
ENDCHAR
STARTCHAR S
ENCODING 83
SWIDTH 411 0
DWIDTH 8 0
BBX 6 9 1 0
BITMAP
78
84
80
80
78
04
04
84
78
ENDCHAR
STARTCHAR T
ENCODING 84
SWIDTH 411 0
DWIDTH 8 0
BBX 7 9 0 0
BITMAP
FE
10
10
10
10
10
10
10
10
ENDCHAR
STARTCHAR U
ENCODING 85
SWIDTH 411 0
DWIDTH 8 0
BBX 6 9 1 0
BITMAP
84
84
84
84
84
84
84
84
78
ENDCHAR
STARTCHAR V
ENCODING 86
SWIDTH 411 0
DWIDTH 8 0
BBX 6 9 1 0
BITMAP
84
84
84
84
48
48
48
30
30
ENDCHAR
STARTCHAR W
ENCODING 87
SWIDTH 411 0
DWIDTH 8 0
BBX 7 9 0 0
BITMAP
82
82
92
92
92
AA
44
44
44
ENDCHAR
STARTCHAR X
ENCODING 88
SWIDTH 411 0
DWIDTH 8 0
BBX 6 9 1 0
BITMAP
84
84
48
48
30
48
48
84
84
ENDCHAR
STARTCHAR Y
ENCODING 89
SWIDTH 411 0
DWIDTH 8 0
BBX 7 9 0 0
BITMAP
82
82
44
44
28
10
10
10
10
ENDCHAR
STARTCHAR Z
ENCODING 90
SWIDTH 411 0
DWIDTH 8 0
BBX 6 9 1 0
BITMAP
FC
04
08
10
20
40
80
80
FC
ENDCHAR
STARTCHAR bracketleft
ENCODING 91
SWIDTH 411 0
DWIDTH 8 0
BBX 3 11 3 -1
BITMAP
E0
80
80
80
80
80
80
80
80
80
E0
ENDCHAR
STARTCHAR backslash
ENCODING 92
SWIDTH 411 0
DWIDTH 8 0
BBX 6 12 1 -1
BITMAP
80
80
40
40
20
20
10
10
08
08
04
04
ENDCHAR
STARTCHAR bracketright
ENCODING 93
SWIDTH 411 0
DWIDTH 8 0
BBX 3 11 2 -1
BITMAP
E0
20
20
20
20
20
20
20
20
20
E0
ENDCHAR
STARTCHAR asciicircum
ENCODING 94
SWIDTH 411 0
DWIDTH 8 0
BBX 5 3 1 7
BITMAP
20
50
88
ENDCHAR
STARTCHAR underscore
ENCODING 95
SWIDTH 411 0
DWIDTH 8 0
BBX 8 1 0 -1
BITMAP
FF
ENDCHAR
STARTCHAR grave
ENCODING 96
SWIDTH 411 0
DWIDTH 8 0
BBX 3 3 1 7
BITMAP
80
40
20
ENDCHAR
STARTCHAR a
ENCODING 97
SWIDTH 411 0
DWIDTH 8 0
BBX 6 7 1 0
BITMAP
78
04
7C
84
84
8C
74
ENDCHAR
STARTCHAR b
ENCODING 98
SWIDTH 411 0
DWIDTH 8 0
BBX 6 10 1 0
BITMAP
80
80
80
B8
C4
84
84
84
84
F8
ENDCHAR
STARTCHAR c
ENCODING 99
SWIDTH 411 0
DWIDTH 8 0
BBX 6 7 1 0
BITMAP
78
84
80
80
80
84
78
ENDCHAR
STARTCHAR d
ENCODING 100
SWIDTH 411 0
DWIDTH 8 0
BBX 6 10 1 0
BITMAP
04
04
04
7C
84
84
84
84
8C
74
ENDCHAR
STARTCHAR e
ENCODING 101
SWIDTH 411 0
DWIDTH 8 0
BBX 6 7 1 0
BITMAP
78
84
84
FC
80
80
7C
ENDCHAR
STARTCHAR f
ENCODING 102
SWIDTH 411 0
DWIDTH 8 0
BBX 4 10 2 0
BITMAP
70
80
80
80
F0
80
80
80
80
80
ENDCHAR
STARTCHAR g
ENCODING 103
SWIDTH 411 0
DWIDTH 8 0
BBX 6 10 1 -3
BITMAP
7C
84
84
84
84
8C
74
04
04
78
ENDCHAR
STARTCHAR h
ENCODING 104
SWIDTH 411 0
DWIDTH 8 0
BBX 6 10 1 0
BITMAP
80
80
80
B8
C4
84
84
84
84
84
ENDCHAR
STARTCHAR i
ENCODING 105
SWIDTH 411 0
DWIDTH 8 0
BBX 5 10 1 0
BITMAP
20
20
00
E0
20
20
20
20
20
38
ENDCHAR
STARTCHAR j
ENCODING 106
SWIDTH 411 0
DWIDTH 8 0
BBX 4 13 1 -3
BITMAP
10
10
00
30
10
10
10
10
10
10
10
10
E0
ENDCHAR
STARTCHAR k
ENCODING 107
SWIDTH 411 0
DWIDTH 8 0
BBX 6 10 1 0
BITMAP
80
80
80
80
88
90
E0
90
88
84
ENDCHAR
STARTCHAR l
ENCODING 108
SWIDTH 411 0
DWIDTH 8 0
BBX 5 10 2 0
BITMAP
C0
40
40
40
40
40
40
40
40
38
ENDCHAR
STARTCHAR m
ENCODING 109
SWIDTH 411 0
DWIDTH 8 0
BBX 7 7 0 0
BITMAP
FC
92
92
92
92
92
92
ENDCHAR
STARTCHAR n
ENCODING 110
SWIDTH 411 0
DWIDTH 8 0
BBX 6 7 1 0
BITMAP
F8
84
84
84
84
84
84
ENDCHAR
STARTCHAR o
ENCODING 111
SWIDTH 411 0
DWIDTH 8 0
BBX 6 7 1 0
BITMAP
78
84
84
84
84
84
78
ENDCHAR
STARTCHAR p
ENCODING 112
SWIDTH 411 0
DWIDTH 8 0
BBX 6 10 1 -3
BITMAP
B8
C4
84
84
84
84
F8
80
80
80
ENDCHAR
STARTCHAR q
ENCODING 113
SWIDTH 411 0
DWIDTH 8 0
BBX 6 10 1 -3
BITMAP
7C
84
84
84
84
8C
74
04
04
04
ENDCHAR
STARTCHAR r
ENCODING 114
SWIDTH 411 0
DWIDTH 8 0
BBX 6 7 1 0
BITMAP
B8
C4
80
80
80
80
80
ENDCHAR
STARTCHAR s
ENCODING 115
SWIDTH 411 0
DWIDTH 8 0
BBX 6 7 1 0
BITMAP
78
80
80
78
04
04
F8
ENDCHAR
STARTCHAR t
ENCODING 116
SWIDTH 411 0
DWIDTH 8 0
BBX 4 10 2 0
BITMAP
40
40
40
F0
40
40
40
40
40
30
ENDCHAR
STARTCHAR u
ENCODING 117
SWIDTH 411 0
DWIDTH 8 0
BBX 6 7 1 0
BITMAP
84
84
84
84
84
8C
74
ENDCHAR
STARTCHAR v
ENCODING 118
SWIDTH 411 0
DWIDTH 8 0
BBX 6 7 1 0
BITMAP
84
84
84
48
48
30
30
ENDCHAR
STARTCHAR w
ENCODING 119
SWIDTH 411 0
DWIDTH 8 0
BBX 7 7 0 0
BITMAP
82
82
92
92
AA
44
44
ENDCHAR
STARTCHAR x
ENCODING 120
SWIDTH 411 0
DWIDTH 8 0
BBX 6 7 1 0
BITMAP
84
84
48
30
48
84
84
ENDCHAR
STARTCHAR y
ENCODING 121
SWIDTH 411 0
DWIDTH 8 0
BBX 6 10 1 -3
BITMAP
84
84
84
84
84
8C
74
04
04
78
ENDCHAR
STARTCHAR z
ENCODING 122
SWIDTH 411 0
DWIDTH 8 0
BBX 6 7 1 0
BITMAP
FC
08
10
20
40
80
FC
ENDCHAR
STARTCHAR braceleft
ENCODING 123
SWIDTH 411 0
DWIDTH 8 0
BBX 7 12 0 -2
BITMAP
0E
10
10
10
10
10
E0
10
10
10
10
0E
ENDCHAR
STARTCHAR bar
ENCODING 124
SWIDTH 411 0
DWIDTH 8 0
BBX 1 12 3 -2
BITMAP
80
80
80
80
80
80
80
80
80
80
80
80
ENDCHAR
STARTCHAR braceright
ENCODING 125
SWIDTH 411 0
DWIDTH 8 0
BBX 7 12 1 -2
BITMAP
E0
10
10
10
10
10
0E
10
10
10
10
E0
ENDCHAR
STARTCHAR asciitilde
ENCODING 126
SWIDTH 411 0
DWIDTH 8 0
BBX 7 3 0 3
BITMAP
62
92
8C
ENDCHAR
STARTCHAR nbspace
ENCODING 160
SWIDTH 411 0
DWIDTH 8 0
BBX 1 1 7 -3
BITMAP
00
ENDCHAR
STARTCHAR exclamdown
ENCODING 161
SWIDTH 411 0
DWIDTH 8 0
BBX 1 10 3 0
BITMAP
80
80
00
80
80
80
80
80
80
80
ENDCHAR
STARTCHAR cent
ENCODING 162
SWIDTH 411 0
DWIDTH 8 0
BBX 7 11 0 -2
BITMAP
10
10
7C
92
90
90
90
92
7C
10
10
ENDCHAR
STARTCHAR sterling
ENCODING 163
SWIDTH 411 0
DWIDTH 8 0
BBX 6 10 1 0
BITMAP
30
48
40
40
F0
40
40
40
44
B8
ENDCHAR
STARTCHAR currency
ENCODING 164
SWIDTH 411 0
DWIDTH 8 0
BBX 7 7 0 0
BITMAP
82
7C
44
44
44
7C
82
ENDCHAR
STARTCHAR yen
ENCODING 165
SWIDTH 411 0
DWIDTH 8 0
BBX 7 10 0 0
BITMAP
82
82
44
28
10
7C
10
7C
10
10
ENDCHAR
STARTCHAR brokenbar
ENCODING 166
SWIDTH 411 0
DWIDTH 8 0
BBX 1 12 3 -2
BITMAP
80
80
80
80
80
00
00
80
80
80
80
80
ENDCHAR
STARTCHAR section
ENCODING 167
SWIDTH 411 0
DWIDTH 8 0
BBX 5 12 1 -2
BITMAP
70
88
80
60
90
88
88
48
30
08
88
70
ENDCHAR
STARTCHAR dieresis
ENCODING 168
SWIDTH 411 0
DWIDTH 8 0
BBX 4 2 2 8
BITMAP
90
90
ENDCHAR
STARTCHAR copyright
ENCODING 169
SWIDTH 411 0
DWIDTH 8 0
BBX 8 9 0 0
BITMAP
3C
42
99
A5
A1
A5
99
42
3C
ENDCHAR
STARTCHAR ordfeminine
ENCODING 170
SWIDTH 411 0
DWIDTH 8 0
BBX 5 7 1 3
BITMAP
70
08
78
88
78
00
F8
ENDCHAR
STARTCHAR guillemotleft
ENCODING 171
SWIDTH 411 0
DWIDTH 8 0
BBX 7 7 0 0
BITMAP
12
24
48
90
48
24
12
ENDCHAR
STARTCHAR logicalnot
ENCODING 172
SWIDTH 411 0
DWIDTH 8 0
BBX 6 4 1 2
BITMAP
FC
04
04
04
ENDCHAR
STARTCHAR softhyphen
ENCODING 173
SWIDTH 411 0
DWIDTH 8 0
BBX 4 1 2 3
BITMAP
F0
ENDCHAR
STARTCHAR registered
ENCODING 174
SWIDTH 411 0
DWIDTH 8 0
BBX 8 9 0 0
BITMAP
3C
42
B9
A5
B9
A9
A5
42
3C
ENDCHAR
STARTCHAR macron
ENCODING 175
SWIDTH 411 0
DWIDTH 8 0
BBX 6 1 1 9
BITMAP
FC
ENDCHAR
STARTCHAR degree
ENCODING 176
SWIDTH 411 0
DWIDTH 8 0
BBX 4 4 2 6
BITMAP
60
90
90
60
ENDCHAR
STARTCHAR plusminus
ENCODING 177
SWIDTH 411 0
DWIDTH 8 0
BBX 5 7 1 0
BITMAP
20
20
F8
20
20
00
F8
ENDCHAR
STARTCHAR twosuperior
ENCODING 178
SWIDTH 411 0
DWIDTH 8 0
BBX 4 5 2 5
BITMAP
60
90
20
40
F0
ENDCHAR
STARTCHAR threesuperior
ENCODING 179
SWIDTH 411 0
DWIDTH 8 0
BBX 4 5 2 5
BITMAP
E0
10
60
10
E0
ENDCHAR
STARTCHAR acute
ENCODING 180
SWIDTH 411 0
DWIDTH 8 0
BBX 2 2 3 9
BITMAP
40
80
ENDCHAR
STARTCHAR mu
ENCODING 181
SWIDTH 411 0
DWIDTH 8 0
BBX 6 10 1 -3
BITMAP
84
84
84
84
84
8C
F4
80
80
80
ENDCHAR
STARTCHAR paragraph
ENCODING 182
SWIDTH 411 0
DWIDTH 8 0
BBX 7 10 0 0
BITMAP
7E
F2
F2
F2
F2
72
12
12
12
12
ENDCHAR
STARTCHAR periodcentered
ENCODING 183
SWIDTH 411 0
DWIDTH 8 0
BBX 2 2 2 3
BITMAP
C0
C0
ENDCHAR
STARTCHAR cedilla
ENCODING 184
SWIDTH 411 0
DWIDTH 8 0
BBX 2 3 2 -3
BITMAP
40
40
80
ENDCHAR
STARTCHAR onesuperior
ENCODING 185
SWIDTH 411 0
DWIDTH 8 0
BBX 3 5 2 5
BITMAP
40
C0
40
40
E0
ENDCHAR
STARTCHAR ordmasculine
ENCODING 186
SWIDTH 411 0
DWIDTH 8 0
BBX 5 7 1 3
BITMAP
70
88
88
88
70
00
F8
ENDCHAR
STARTCHAR guillemotright
ENCODING 187
SWIDTH 411 0
DWIDTH 8 0
BBX 7 7 0 0
BITMAP
90
48
24
12
24
48
90
ENDCHAR
STARTCHAR onequarter
ENCODING 188
SWIDTH 411 0
DWIDTH 8 0
BBX 7 13 0 -2
BITMAP
20
60
20
22
24
08
10
22
46
8A
1E
02
02
ENDCHAR
STARTCHAR onehalf
ENCODING 189
SWIDTH 411 0
DWIDTH 8 0
BBX 7 13 0 -2
BITMAP
20
60
20
22
24
08
10
20
4C
92
04
08
1E
ENDCHAR
STARTCHAR threequarters
ENCODING 190
SWIDTH 411 0
DWIDTH 8 0
BBX 7 13 0 -2
BITMAP
E0
10
60
12
E4
08
10
22
46
8A
1E
02
02
ENDCHAR
STARTCHAR question
ENCODING 191
SWIDTH 411 0
DWIDTH 8 0
BBX 6 10 1 0
BITMAP
10
10
00
10
20
40
80
80
84
78
ENDCHAR
STARTCHAR Agrave
ENCODING 192
SWIDTH 411 0
DWIDTH 8 0
BBX 6 11 1 0
BITMAP
20
10
78
84
84
84
FC
84
84
84
84
ENDCHAR
STARTCHAR Aacute
ENCODING 193
SWIDTH 411 0
DWIDTH 8 0
BBX 6 11 1 0
BITMAP
10
20
78
84
84
84
FC
84
84
84
84
ENDCHAR
STARTCHAR Acircumflex
ENCODING 194
SWIDTH 411 0
DWIDTH 8 0
BBX 6 11 1 0
BITMAP
30
48
00
78
84
84
84
FC
84
84
84
ENDCHAR
STARTCHAR Atilde
ENCODING 195
SWIDTH 411 0
DWIDTH 8 0
BBX 6 11 1 0
BITMAP
64
98
00
78
84
84
84
FC
84
84
84
ENDCHAR
STARTCHAR Adieresis
ENCODING 196
SWIDTH 411 0
DWIDTH 8 0
BBX 6 11 1 0
BITMAP
48
48
00
78
84
84
84
FC
84
84
84
ENDCHAR
STARTCHAR Aring
ENCODING 197
SWIDTH 411 0
DWIDTH 8 0
BBX 6 11 1 0
BITMAP
30
48
30
78
84
84
84
FC
84
84
84
ENDCHAR
STARTCHAR AE
ENCODING 198
SWIDTH 411 0
DWIDTH 8 0
BBX 7 10 0 0
BITMAP
7E
90
90
90
FC
90
90
90
90
9E
ENDCHAR
STARTCHAR Ccedilla
ENCODING 199
SWIDTH 411 0
DWIDTH 8 0
BBX 6 12 1 -2
BITMAP
78
84
80
80
80
80
80
80
84
78
20
40
ENDCHAR
STARTCHAR Egrave
ENCODING 200
SWIDTH 411 0
DWIDTH 8 0
BBX 6 11 1 0
BITMAP
20
10
FC
80
80
80
F0
80
80
80
FC
ENDCHAR
STARTCHAR Eacute
ENCODING 201
SWIDTH 411 0
DWIDTH 8 0
BBX 6 11 1 0
BITMAP
10
20
FC
80
80
80
F0
80
80
80
FC
ENDCHAR
STARTCHAR Ecircumflex
ENCODING 202
SWIDTH 411 0
DWIDTH 8 0
BBX 6 11 1 0
BITMAP
30
48
00
FC
80
80
F0
80
80
80
FC
ENDCHAR
STARTCHAR Edieresis
ENCODING 203
SWIDTH 411 0
DWIDTH 8 0
BBX 6 11 1 0
BITMAP
48
48
00
FC
80
80
F0
80
80
80
FC
ENDCHAR
STARTCHAR Igrave
ENCODING 204
SWIDTH 411 0
DWIDTH 8 0
BBX 3 11 2 0
BITMAP
80
40
00
E0
40
40
40
40
40
40
E0
ENDCHAR
STARTCHAR Iacute
ENCODING 205
SWIDTH 411 0
DWIDTH 8 0
BBX 3 11 2 0
BITMAP
20
40
00
E0
40
40
40
40
40
40
E0
ENDCHAR
STARTCHAR Icircumflex
ENCODING 206
SWIDTH 411 0
DWIDTH 8 0
BBX 4 11 2 0
BITMAP
60
90
00
E0
40
40
40
40
40
40
E0
ENDCHAR
STARTCHAR Idieresis
ENCODING 207
SWIDTH 411 0
DWIDTH 8 0
BBX 5 11 1 0
BITMAP
88
88
00
70
20
20
20
20
20
20
70
ENDCHAR
STARTCHAR Eth
ENCODING 208
SWIDTH 411 0
DWIDTH 8 0
BBX 7 10 0 0
BITMAP
78
44
42
42
F2
42
42
42
44
78
ENDCHAR
STARTCHAR Ntilde
ENCODING 209
SWIDTH 411 0
DWIDTH 8 0
BBX 6 11 1 0
BITMAP
64
98
00
C4
C4
A4
A4
94
94
8C
8C
ENDCHAR
STARTCHAR Ograve
ENCODING 210
SWIDTH 411 0
DWIDTH 8 0
BBX 6 11 1 0
BITMAP
20
10
78
84
84
84
84
84
84
84
78
ENDCHAR
STARTCHAR Oacute
ENCODING 211
SWIDTH 411 0
DWIDTH 8 0
BBX 6 11 1 0
BITMAP
10
20
78
84
84
84
84
84
84
84
78
ENDCHAR
STARTCHAR Ocircumflex
ENCODING 212
SWIDTH 411 0
DWIDTH 8 0
BBX 6 11 1 0
BITMAP
30
48
00
78
84
84
84
84
84
84
78
ENDCHAR
STARTCHAR Otilde
ENCODING 213
SWIDTH 411 0
DWIDTH 8 0
BBX 6 11 1 0
BITMAP
64
98
00
78
84
84
84
84
84
84
78
ENDCHAR
STARTCHAR Odieresis
ENCODING 214
SWIDTH 411 0
DWIDTH 8 0
BBX 6 11 1 0
BITMAP
48
48
00
78
84
84
84
84
84
84
78
ENDCHAR
STARTCHAR multiply
ENCODING 215
SWIDTH 411 0
DWIDTH 8 0
BBX 6 5 1 1
BITMAP
84
48
30
48
84
ENDCHAR
STARTCHAR Oslash
ENCODING 216
SWIDTH 411 0
DWIDTH 8 0
BBX 6 12 1 -1
BITMAP
04
74
88
8C
94
94
A4
A4
C4
44
B8
80
ENDCHAR
STARTCHAR Ugrave
ENCODING 217
SWIDTH 411 0
DWIDTH 8 0
BBX 6 11 1 0
BITMAP
20
10
84
84
84
84
84
84
84
84
78
ENDCHAR
STARTCHAR Uacute
ENCODING 218
SWIDTH 411 0
DWIDTH 8 0
BBX 6 11 1 0
BITMAP
10
20
84
84
84
84
84
84
84
84
78
ENDCHAR
STARTCHAR Ucircumflex
ENCODING 219
SWIDTH 411 0
DWIDTH 8 0
BBX 6 11 1 0
BITMAP
30
48
00
84
84
84
84
84
84
84
78
ENDCHAR
STARTCHAR Udieresis
ENCODING 220
SWIDTH 411 0
DWIDTH 8 0
BBX 6 11 1 0
BITMAP
48
48
00
84
84
84
84
84
84
84
78
ENDCHAR
STARTCHAR Yacute
ENCODING 221
SWIDTH 411 0
DWIDTH 8 0
BBX 7 11 0 0
BITMAP
08
10
82
82
44
44
28
10
10
10
10
ENDCHAR
STARTCHAR Thorn
ENCODING 222
SWIDTH 411 0
DWIDTH 8 0
BBX 6 10 1 0
BITMAP
80
80
F8
84
84
84
84
F8
80
80
ENDCHAR
STARTCHAR germandbls
ENCODING 223
SWIDTH 411 0
DWIDTH 8 0
BBX 6 10 1 0
BITMAP
70
88
88
90
F8
84
84
84
C4
B8
ENDCHAR
STARTCHAR agrave
ENCODING 224
SWIDTH 411 0
DWIDTH 8 0
BBX 6 10 1 0
BITMAP
20
10
00
78
04
7C
84
84
8C
74
ENDCHAR
STARTCHAR aacute
ENCODING 225
SWIDTH 411 0
DWIDTH 8 0
BBX 6 10 1 0
BITMAP
10
20
00
78
04
7C
84
84
8C
74
ENDCHAR
STARTCHAR acircumflex
ENCODING 226
SWIDTH 411 0
DWIDTH 8 0
BBX 6 10 1 0
BITMAP
30
48
00
78
04
7C
84
84
8C
74
ENDCHAR
STARTCHAR atilde
ENCODING 227
SWIDTH 411 0
DWIDTH 8 0
BBX 6 10 1 0
BITMAP
64
98
00
78
04
7C
84
84
8C
74
ENDCHAR
STARTCHAR adieresis
ENCODING 228
SWIDTH 411 0
DWIDTH 8 0
BBX 6 10 1 0
BITMAP
48
48
00
78
04
7C
84
84
8C
74
ENDCHAR
STARTCHAR aring
ENCODING 229
SWIDTH 411 0
DWIDTH 8 0
BBX 6 10 1 0
BITMAP
30
48
30
78
04
7C
84
84
8C
74
ENDCHAR
STARTCHAR ae
ENCODING 230
SWIDTH 411 0
DWIDTH 8 0
BBX 7 7 0 0
BITMAP
6C
12
72
9E
90
90
6C
ENDCHAR
STARTCHAR ccedilla
ENCODING 231
SWIDTH 411 0
DWIDTH 8 0
BBX 6 9 1 -2
BITMAP
78
84
80
80
80
84
78
20
40
ENDCHAR
STARTCHAR egrave
ENCODING 232
SWIDTH 411 0
DWIDTH 8 0
BBX 6 10 1 0
BITMAP
20
10
00
78
84
84
FC
80
80
7C
ENDCHAR
STARTCHAR eacute
ENCODING 233
SWIDTH 411 0
DWIDTH 8 0
BBX 6 10 1 0
BITMAP
10
20
00
78
84
84
FC
80
80
7C
ENDCHAR
STARTCHAR ecircumflex
ENCODING 234
SWIDTH 411 0
DWIDTH 8 0
BBX 6 10 1 0
BITMAP
30
48
00
78
84
84
FC
80
80
7C
ENDCHAR
STARTCHAR edieresis
ENCODING 235
SWIDTH 411 0
DWIDTH 8 0
BBX 6 10 1 0
BITMAP
48
48
00
78
84
84
FC
80
80
7C
ENDCHAR
STARTCHAR igrave
ENCODING 236
SWIDTH 411 0
DWIDTH 8 0
BBX 5 10 1 0
BITMAP
40
20
00
E0
20
20
20
20
20
38
ENDCHAR
STARTCHAR iacute
ENCODING 237
SWIDTH 411 0
DWIDTH 8 0
BBX 5 10 1 0
BITMAP
10
20
00
E0
20
20
20
20
20
38
ENDCHAR
STARTCHAR icircumflex
ENCODING 238
SWIDTH 411 0
DWIDTH 8 0
BBX 5 10 1 0
BITMAP
60
90
00
E0
20
20
20
20
20
38
ENDCHAR
STARTCHAR idieresis
ENCODING 239
SWIDTH 411 0
DWIDTH 8 0
BBX 5 10 1 0
BITMAP
90
90
00
E0
20
20
20
20
20
38
ENDCHAR
STARTCHAR eth
ENCODING 240
SWIDTH 411 0
DWIDTH 8 0
BBX 6 10 1 0
BITMAP
50
20
50
78
84
84
84
84
84
78
ENDCHAR
STARTCHAR ntilde
ENCODING 241
SWIDTH 411 0
DWIDTH 8 0
BBX 6 10 1 0
BITMAP
64
98
00
F8
84
84
84
84
84
84
ENDCHAR
STARTCHAR ograve
ENCODING 242
SWIDTH 411 0
DWIDTH 8 0
BBX 6 10 1 0
BITMAP
20
10
00
78
84
84
84
84
84
78
ENDCHAR
STARTCHAR oacute
ENCODING 243
SWIDTH 411 0
DWIDTH 8 0
BBX 6 10 1 0
BITMAP
10
20
00
78
84
84
84
84
84
78
ENDCHAR
STARTCHAR ocircumflex
ENCODING 244
SWIDTH 411 0
DWIDTH 8 0
BBX 6 10 1 0
BITMAP
30
48
00
78
84
84
84
84
84
78
ENDCHAR
STARTCHAR otilde
ENCODING 245
SWIDTH 411 0
DWIDTH 8 0
BBX 6 10 1 0
BITMAP
64
98
00
78
84
84
84
84
84
78
ENDCHAR
STARTCHAR odieresis
ENCODING 246
SWIDTH 411 0
DWIDTH 8 0
BBX 6 10 1 0
BITMAP
48
48
00
78
84
84
84
84
84
78
ENDCHAR
STARTCHAR divide
ENCODING 247
SWIDTH 411 0
DWIDTH 8 0
BBX 5 7 1 0
BITMAP
20
20
00
F8
00
20
20
ENDCHAR
STARTCHAR oslash
ENCODING 248
SWIDTH 411 0
DWIDTH 8 0
BBX 7 8 0 0
BITMAP
02
3C
46
4A
52
62
42
BC
ENDCHAR
STARTCHAR ugrave
ENCODING 249
SWIDTH 411 0
DWIDTH 8 0
BBX 6 10 1 0
BITMAP
20
10
00
84
84
84
84
84
8C
74
ENDCHAR
STARTCHAR uacute
ENCODING 250
SWIDTH 411 0
DWIDTH 8 0
BBX 6 10 1 0
BITMAP
10
20
00
84
84
84
84
84
8C
74
ENDCHAR
STARTCHAR ucircumflex
ENCODING 251
SWIDTH 411 0
DWIDTH 8 0
BBX 6 10 1 0
BITMAP
30
48
00
84
84
84
84
84
8C
74
ENDCHAR
STARTCHAR udieresis
ENCODING 252
SWIDTH 411 0
DWIDTH 8 0
BBX 6 10 1 0
BITMAP
48
48
00
84
84
84
84
84
8C
74
ENDCHAR
STARTCHAR yacute
ENCODING 253
SWIDTH 411 0
DWIDTH 8 0
BBX 6 13 1 -3
BITMAP
10
20
00
84
84
84
84
84
8C
74
04
04
78
ENDCHAR
STARTCHAR thorn
ENCODING 254
SWIDTH 411 0
DWIDTH 8 0
BBX 6 12 1 -2
BITMAP
80
80
80
F8
84
84
84
84
84
F8
80
80
ENDCHAR
STARTCHAR ydieresis
ENCODING 255
SWIDTH 411 0
DWIDTH 8 0
BBX 6 13 1 -3
BITMAP
48
48
00
84
84
84
84
84
8C
74
04
04
78
ENDCHAR
STARTCHAR Amacron
ENCODING 256
SWIDTH 411 0
DWIDTH 8 0
BBX 6 11 1 0
BITMAP
78
00
78
84
84
84
FC
84
84
84
84
ENDCHAR
STARTCHAR amacron
ENCODING 257
SWIDTH 411 0
DWIDTH 8 0
BBX 6 9 1 0
BITMAP
78
00
78
04
7C
84
84
8C
74
ENDCHAR
STARTCHAR Abreve
ENCODING 258
SWIDTH 411 0
DWIDTH 8 0
BBX 6 11 1 0
BITMAP
48
30
00
78
84
84
84
FC
84
84
84
ENDCHAR
STARTCHAR abreve
ENCODING 259
SWIDTH 411 0
DWIDTH 8 0
BBX 6 10 1 0
BITMAP
48
30
00
78
04
7C
84
84
8C
74
ENDCHAR
STARTCHAR Aogonek
ENCODING 260
SWIDTH 411 0
DWIDTH 8 0
BBX 7 11 1 -2
BITMAP
78
84
84
84
FC
84
84
84
84
08
06
ENDCHAR
STARTCHAR aogonek
ENCODING 261
SWIDTH 411 0
DWIDTH 8 0
BBX 7 9 1 -2
BITMAP
78
04
7C
84
84
8C
74
08
06
ENDCHAR
STARTCHAR Cacute
ENCODING 262
SWIDTH 411 0
DWIDTH 8 0
BBX 6 11 1 0
BITMAP
10
20
78
84
80
80
80
80
80
84
78
ENDCHAR
STARTCHAR cacute
ENCODING 263
SWIDTH 411 0
DWIDTH 8 0
BBX 6 10 1 0
BITMAP
10
20
00
78
84
80
80
80
84
78
ENDCHAR
STARTCHAR Ccircumflex
ENCODING 264
SWIDTH 411 0
DWIDTH 8 0
BBX 6 11 1 0
BITMAP
30
48
00
78
84
80
80
80
80
84
78
ENDCHAR
STARTCHAR ccircumflex
ENCODING 265
SWIDTH 411 0
DWIDTH 8 0
BBX 6 10 1 0
BITMAP
30
48
00
78
84
80
80
80
84
78
ENDCHAR
STARTCHAR Cdotaccent
ENCODING 266
SWIDTH 411 0
DWIDTH 8 0
BBX 6 11 1 0
BITMAP
20
20
00
78
84
80
80
80
80
84
78
ENDCHAR
STARTCHAR cdotaccent
ENCODING 267
SWIDTH 411 0
DWIDTH 8 0
BBX 6 10 1 0
BITMAP
20
20
00
78
84
80
80
80
84
78
ENDCHAR
STARTCHAR Ccaron
ENCODING 268
SWIDTH 411 0
DWIDTH 8 0
BBX 6 11 1 0
BITMAP
48
30
00
78
84
84
80
80
80
84
78
ENDCHAR
STARTCHAR ccaron
ENCODING 269
SWIDTH 411 0
DWIDTH 8 0
BBX 6 10 1 0
BITMAP
48
30
00
78
84
80
80
80
84
78
ENDCHAR
STARTCHAR Dcaron
ENCODING 270
SWIDTH 411 0
DWIDTH 8 0
BBX 6 11 1 0
BITMAP
48
30
00
F0
88
84
84
84
84
88
F0
ENDCHAR
STARTCHAR dcaron
ENCODING 271
SWIDTH 411 0
DWIDTH 8 0
BBX 6 11 1 0
BITMAP
48
30
04
04
04
7C
84
84
84
8C
74
ENDCHAR
STARTCHAR Dcroat
ENCODING 272
SWIDTH 411 0
DWIDTH 8 0
BBX 7 9 0 0
BITMAP
78
44
42
42
F2
42
42
44
78
ENDCHAR
STARTCHAR dcroat
ENCODING 273
SWIDTH 411 0
DWIDTH 8 0
BBX 7 10 1 0
BITMAP
04
1E
04
7C
84
84
84
84
8C
74
ENDCHAR
STARTCHAR Emacron
ENCODING 274
SWIDTH 411 0
DWIDTH 8 0
BBX 6 11 1 0
BITMAP
78
00
FC
80
80
80
F0
80
80
80
FC
ENDCHAR
STARTCHAR emacron
ENCODING 275
SWIDTH 411 0
DWIDTH 8 0
BBX 6 9 1 0
BITMAP
78
00
78
84
84
FC
80
80
7C
ENDCHAR
STARTCHAR Ebreve
ENCODING 276
SWIDTH 411 0
DWIDTH 8 0
BBX 6 11 1 0
BITMAP
48
30
00
FC
80
80
F0
80
80
80
FC
ENDCHAR
STARTCHAR ebreve
ENCODING 277
SWIDTH 411 0
DWIDTH 8 0
BBX 6 10 1 0
BITMAP
48
30
00
78
84
84
FC
80
80
7C
ENDCHAR
STARTCHAR Edotaccent
ENCODING 278
SWIDTH 411 0
DWIDTH 8 0
BBX 6 11 1 0
BITMAP
20
20
00
FC
80
80
F0
80
80
80
FC
ENDCHAR
STARTCHAR edotaccent
ENCODING 279
SWIDTH 411 0
DWIDTH 8 0
BBX 6 10 1 0
BITMAP
20
20
00
78
84
84
FC
80
80
7C
ENDCHAR
STARTCHAR Eogonek
ENCODING 280
SWIDTH 411 0
DWIDTH 8 0
BBX 7 11 1 -2
BITMAP
FC
80
80
80
F0
80
80
80
FC
08
06
ENDCHAR
STARTCHAR eogonek
ENCODING 281
SWIDTH 411 0
DWIDTH 8 0
BBX 6 9 1 -2
BITMAP
78
84
84
FC
80
80
7C
10
0C
ENDCHAR
STARTCHAR Ecaron
ENCODING 282
SWIDTH 411 0
DWIDTH 8 0
BBX 6 11 1 0
BITMAP
48
30
00
FC
80
80
F0
80
80
80
FC
ENDCHAR
STARTCHAR ecaron
ENCODING 283
SWIDTH 411 0
DWIDTH 8 0
BBX 6 10 1 0
BITMAP
48
30
00
78
84
84
FC
80
80
78
ENDCHAR
STARTCHAR Gcircumflex
ENCODING 284
SWIDTH 411 0
DWIDTH 8 0
BBX 6 11 1 0
BITMAP
30
48
00
78
84
80
80
9C
84
84
78
ENDCHAR
STARTCHAR gcircumflex
ENCODING 285
SWIDTH 411 0
DWIDTH 8 0
BBX 6 13 1 -3
BITMAP
30
48
00
7C
84
84
84
84
8C
74
04
04
78
ENDCHAR
STARTCHAR Gbreve
ENCODING 286
SWIDTH 411 0
DWIDTH 8 0
BBX 6 11 1 0
BITMAP
48
30
00
78
84
80
80
9C
84
84
78
ENDCHAR
STARTCHAR gbreve
ENCODING 287
SWIDTH 411 0
DWIDTH 8 0
BBX 6 13 1 -3
BITMAP
48
30
00
7C
84
84
84
84
8C
74
04
04
78
ENDCHAR
STARTCHAR Gdotaccent
ENCODING 288
SWIDTH 411 0
DWIDTH 8 0
BBX 6 11 1 0
BITMAP
20
20
00
78
84
80
80
9C
84
84
78
ENDCHAR
STARTCHAR gdotaccent
ENCODING 289
SWIDTH 411 0
DWIDTH 8 0
BBX 6 13 1 -3
BITMAP
10
10
00
7C
84
84
84
84
8C
74
04
04
78
ENDCHAR
STARTCHAR Gcommaaccent
ENCODING 290
SWIDTH 411 0
DWIDTH 8 0
BBX 6 11 1 -2
BITMAP
78
84
80
80
9C
84
84
84
78
20
40
ENDCHAR
STARTCHAR gcommaaccent
ENCODING 291
SWIDTH 411 0
DWIDTH 8 0
BBX 6 14 1 -3
BITMAP
08
10
10
00
7C
84
84
84
84
8C
74
04
04
78
ENDCHAR
STARTCHAR Hcircumflex
ENCODING 292
SWIDTH 411 0
DWIDTH 8 0
BBX 6 11 1 0
BITMAP
30
48
00
84
84
84
FC
84
84
84
84
ENDCHAR
STARTCHAR hcircumflex
ENCODING 293
SWIDTH 411 0
DWIDTH 8 0
BBX 6 11 1 0
BITMAP
18
24
80
80
80
B8
C4
84
84
84
84
ENDCHAR
STARTCHAR Hbar
ENCODING 294
SWIDTH 411 0
DWIDTH 8 0
BBX 8 9 0 0
BITMAP
42
FF
42
42
7E
42
42
42
42
ENDCHAR
STARTCHAR hbar
ENCODING 295
SWIDTH 411 0
DWIDTH 8 0
BBX 7 10 0 0
BITMAP
40
F8
40
5C
62
42
42
42
42
42
ENDCHAR
STARTCHAR Itilde
ENCODING 296
SWIDTH 411 0
DWIDTH 8 0
BBX 6 11 1 0
BITMAP
64
98
00
70
20
20
20
20
20
20
70
ENDCHAR
STARTCHAR itilde
ENCODING 297
SWIDTH 411 0
DWIDTH 8 0
BBX 5 10 1 0
BITMAP
68
B0
00
E0
20
20
20
20
20
38
ENDCHAR
STARTCHAR Imacron
ENCODING 298
SWIDTH 411 0
DWIDTH 8 0
BBX 5 11 1 0
BITMAP
F8
00
70
20
20
20
20
20
20
20
70
ENDCHAR
STARTCHAR imacron
ENCODING 299
SWIDTH 411 0
DWIDTH 8 0
BBX 5 9 1 0
BITMAP
F0
00
E0
20
20
20
20
20
38
ENDCHAR
STARTCHAR Ibreve
ENCODING 300
SWIDTH 411 0
DWIDTH 8 0
BBX 4 11 2 0
BITMAP
90
60
00
E0
40
40
40
40
40
40
E0
ENDCHAR
STARTCHAR ibreve
ENCODING 301
SWIDTH 411 0
DWIDTH 8 0
BBX 5 10 1 0
BITMAP
90
60
00
E0
20
20
20
20
20
38
ENDCHAR
STARTCHAR Iogonek
ENCODING 302
SWIDTH 411 0
DWIDTH 8 0
BBX 4 11 2 -2
BITMAP
E0
40
40
40
40
40
40
40
E0
40
30
ENDCHAR
STARTCHAR iogonek
ENCODING 303
SWIDTH 411 0
DWIDTH 8 0
BBX 5 12 1 -2
BITMAP
20
20
00
E0
20
20
20
20
20
38
20
18
ENDCHAR
STARTCHAR Idotaccent
ENCODING 304
SWIDTH 411 0
DWIDTH 8 0
BBX 3 11 2 0
BITMAP
40
40
00
E0
40
40
40
40
40
40
E0
ENDCHAR
STARTCHAR dotlessi
ENCODING 305
SWIDTH 411 0
DWIDTH 8 0
BBX 5 7 1 0
BITMAP
E0
20
20
20
20
20
38
ENDCHAR
STARTCHAR IJ
ENCODING 306
SWIDTH 411 0
DWIDTH 8 0
BBX 7 9 0 0
BITMAP
E2
42
42
42
42
42
52
52
EC
ENDCHAR
STARTCHAR ij
ENCODING 307
SWIDTH 411 0
DWIDTH 8 0
BBX 7 13 0 -3
BITMAP
22
22
00
E6
22
22
22
22
22
3A
02
02
1C
ENDCHAR
STARTCHAR Jcircumflex
ENCODING 308
SWIDTH 411 0
DWIDTH 8 0
BBX 6 11 1 0
BITMAP
18
24
00
08
08
08
08
08
88
88
70
ENDCHAR
STARTCHAR jcircumflex
ENCODING 309
SWIDTH 411 0
DWIDTH 8 0
BBX 5 13 2 -3
BITMAP
30
48
00
30
10
10
10
10
10
10
10
10
E0
ENDCHAR
STARTCHAR Kcommaaccent
ENCODING 310
SWIDTH 411 0
DWIDTH 8 0
BBX 6 11 1 -2
BITMAP
84
88
90
A0
C0
A0
90
88
A4
20
40
ENDCHAR
STARTCHAR kcommaaccent
ENCODING 311
SWIDTH 411 0
DWIDTH 8 0
BBX 6 12 1 -2
BITMAP
80
80
80
80
88
90
E0
90
88
A4
20
40
ENDCHAR
STARTCHAR kgreenlandic
ENCODING 312
SWIDTH 411 0
DWIDTH 8 0
BBX 6 7 1 0
BITMAP
84
88
90
E0
90
88
84
ENDCHAR
STARTCHAR Lacute
ENCODING 313
SWIDTH 411 0
DWIDTH 8 0
BBX 6 11 1 0
BITMAP
40
80
00
80
80
80
80
80
80
80
FC
ENDCHAR
STARTCHAR lacute
ENCODING 314
SWIDTH 411 0
DWIDTH 8 0
BBX 4 11 2 0
BITMAP
20
40
00
C0
40
40
40
40
40
40
30
ENDCHAR
STARTCHAR Lcommaaccent
ENCODING 315
SWIDTH 411 0
DWIDTH 8 0
BBX 6 11 1 -2
BITMAP
80
80
80
80
80
80
80
80
FC
20
40
ENDCHAR
STARTCHAR lcommaaccent
ENCODING 316
SWIDTH 411 0
DWIDTH 8 0
BBX 5 12 2 -2
BITMAP
C0
40
40
40
40
40
40
40
40
38
40
80
ENDCHAR
STARTCHAR Lcaron
ENCODING 317
SWIDTH 411 0
DWIDTH 8 0
BBX 6 11 1 0
BITMAP
48
30
80
80
80
80
80
80
80
80
FC
ENDCHAR
STARTCHAR lcaron
ENCODING 318
SWIDTH 411 0
DWIDTH 8 0
BBX 6 11 1 0
BITMAP
90
60
00
60
20
20
20
20
20
20
1C
ENDCHAR
STARTCHAR Ldot
ENCODING 319
SWIDTH 411 0
DWIDTH 8 0
BBX 6 9 1 0
BITMAP
80
80
80
88
88
80
80
80
FC
ENDCHAR
STARTCHAR ldot
ENCODING 320
SWIDTH 411 0
DWIDTH 8 0
BBX 6 10 2 0
BITMAP
C0
40
40
40
44
44
40
40
40
38
ENDCHAR
STARTCHAR Lslash
ENCODING 321
SWIDTH 411 0
DWIDTH 8 0
BBX 7 9 0 0
BITMAP
40
40
40
40
60
C0
40
40
7E
ENDCHAR
STARTCHAR lslash
ENCODING 322
SWIDTH 411 0
DWIDTH 8 0
BBX 5 9 2 0
BITMAP
C0
40
40
40
60
C0
40
40
38
ENDCHAR
STARTCHAR Nacute
ENCODING 323
SWIDTH 411 0
DWIDTH 8 0
BBX 6 11 1 0
BITMAP
10
20
84
C4
C4
A4
A4
94
94
8C
8C
ENDCHAR
STARTCHAR nacute
ENCODING 324
SWIDTH 411 0
DWIDTH 8 0
BBX 6 10 1 0
BITMAP
10
20
00
F8
84
84
84
84
84
84
ENDCHAR
STARTCHAR Ncommaaccent
ENCODING 325
SWIDTH 411 0
DWIDTH 8 0
BBX 6 11 1 -2
BITMAP
84
C4
C4
A4
A4
94
94
8C
AC
20
40
ENDCHAR
STARTCHAR ncommaaccent
ENCODING 326
SWIDTH 411 0
DWIDTH 8 0
BBX 6 9 1 -2
BITMAP
F8
84
84
84
84
84
A4
20
40
ENDCHAR
STARTCHAR Ncaron
ENCODING 327
SWIDTH 411 0
DWIDTH 8 0
BBX 6 11 1 0
BITMAP
48
30
84
C4
C4
A4
A4
94
94
8C
8C
ENDCHAR
STARTCHAR ncaron
ENCODING 328
SWIDTH 411 0
DWIDTH 8 0
BBX 6 10 1 0
BITMAP
48
30
00
F8
84
84
84
84
84
84
ENDCHAR
STARTCHAR napostrophe
ENCODING 329
SWIDTH 411 0
DWIDTH 8 0
BBX 7 11 0 0
BITMAP
40
40
80
00
7C
42
42
42
42
42
42
ENDCHAR
STARTCHAR Eng
ENCODING 330
SWIDTH 411 0
DWIDTH 8 0
BBX 6 11 1 -2
BITMAP
84
C4
C4
A4
A4
94
94
8C
8C
04
08
ENDCHAR
STARTCHAR eng
ENCODING 331
SWIDTH 411 0
DWIDTH 8 0
BBX 6 9 1 -2
BITMAP
F8
84
84
84
84
84
84
04
08
ENDCHAR
STARTCHAR Omacron
ENCODING 332
SWIDTH 411 0
DWIDTH 8 0
BBX 6 11 1 0
BITMAP
78
00
78
84
84
84
84
84
84
84
78
ENDCHAR
STARTCHAR omacron
ENCODING 333
SWIDTH 411 0
DWIDTH 8 0
BBX 6 9 1 0
BITMAP
78
00
78
84
84
84
84
84
78
ENDCHAR
STARTCHAR Obreve
ENCODING 334
SWIDTH 411 0
DWIDTH 8 0
BBX 6 11 1 0
BITMAP
48
30
00
78
84
84
84
84
84
84
78
ENDCHAR
STARTCHAR obreve
ENCODING 335
SWIDTH 411 0
DWIDTH 8 0
BBX 6 10 1 0
BITMAP
48
30
00
78
84
84
84
84
84
78
ENDCHAR
STARTCHAR Ohungarumlaut
ENCODING 336
SWIDTH 411 0
DWIDTH 8 0
BBX 6 11 1 0
BITMAP
24
48
00
78
84
84
84
84
84
84
78
ENDCHAR
STARTCHAR ohungarumlaut
ENCODING 337
SWIDTH 411 0
DWIDTH 8 0
BBX 6 10 1 0
BITMAP
24
48
00
78
84
84
84
84
84
78
ENDCHAR
STARTCHAR OE
ENCODING 338
SWIDTH 411 0
DWIDTH 8 0
BBX 7 9 0 0
BITMAP
7E
90
90
90
9C
90
90
90
7E
ENDCHAR
STARTCHAR oe
ENCODING 339
SWIDTH 411 0
DWIDTH 8 0
BBX 7 7 0 0
BITMAP
7C
92
92
9E
90
90
7C
ENDCHAR
STARTCHAR Racute
ENCODING 340
SWIDTH 411 0
DWIDTH 8 0
BBX 6 11 1 0
BITMAP
10
20
F8
84
84
84
F8
90
88
84
84
ENDCHAR
STARTCHAR racute
ENCODING 341
SWIDTH 411 0
DWIDTH 8 0
BBX 6 10 1 0
BITMAP
10
20
00
B8
C4
80
80
80
80
80
ENDCHAR
STARTCHAR Rcommaaccent
ENCODING 342
SWIDTH 411 0
DWIDTH 8 0
BBX 6 11 1 -2
BITMAP
F8
84
84
84
F8
90
88
84
A4
20
40
ENDCHAR
STARTCHAR rcommaaccent
ENCODING 343
SWIDTH 411 0
DWIDTH 8 0
BBX 6 9 1 -2
BITMAP
B8
C4
80
80
80
80
C0
40
80
ENDCHAR
STARTCHAR Rcaron
ENCODING 344
SWIDTH 411 0
DWIDTH 8 0
BBX 6 11 1 0
BITMAP
48
30
00
F8
84
84
F8
90
88
84
84
ENDCHAR
STARTCHAR rcaron
ENCODING 345
SWIDTH 411 0
DWIDTH 8 0
BBX 6 10 1 0
BITMAP
48
30
00
B8
C4
80
80
80
80
80
ENDCHAR
STARTCHAR Sacute
ENCODING 346
SWIDTH 411 0
DWIDTH 8 0
BBX 6 11 1 0
BITMAP
10
20
78
84
80
80
78
04
04
84
78
ENDCHAR
STARTCHAR sacute
ENCODING 347
SWIDTH 411 0
DWIDTH 8 0
BBX 6 10 1 0
BITMAP
08
10
00
7C
80
80
78
04
04
F8
ENDCHAR
STARTCHAR Scircumflex
ENCODING 348
SWIDTH 411 0
DWIDTH 8 0
BBX 6 11 1 0
BITMAP
30
48
00
78
84
80
78
04
04
84
78
ENDCHAR
STARTCHAR scircumflex
ENCODING 349
SWIDTH 411 0
DWIDTH 8 0
BBX 6 10 1 0
BITMAP
30
48
00
7C
80
80
78
04
04
F8
ENDCHAR
STARTCHAR Scedilla
ENCODING 350
SWIDTH 411 0
DWIDTH 8 0
BBX 6 12 1 -3
BITMAP
78
84
80
80
78
04
04
84
78
00
20
40
ENDCHAR
STARTCHAR scedilla
ENCODING 351
SWIDTH 411 0
DWIDTH 8 0
BBX 6 9 1 -2
BITMAP
7C
80
80
78
04
04
F8
20
40
ENDCHAR
STARTCHAR Scaron
ENCODING 352
SWIDTH 411 0
DWIDTH 8 0
BBX 6 11 1 0
BITMAP
48
30
00
78
84
80
78
04
04
84
78
ENDCHAR
STARTCHAR scaron
ENCODING 353
SWIDTH 411 0
DWIDTH 8 0
BBX 6 10 1 0
BITMAP
48
30
00
7C
80
80
78
04
04
F8
ENDCHAR
STARTCHAR Tcedilla
ENCODING 354
SWIDTH 411 0
DWIDTH 8 0
BBX 7 11 0 -2
BITMAP
FE
10
10
10
10
10
10
10
18
08
10
ENDCHAR
STARTCHAR tcedilla
ENCODING 355
SWIDTH 411 0
DWIDTH 8 0
BBX 4 12 2 -2
BITMAP
40
40
40
F0
40
40
40
40
40
30
10
20
ENDCHAR
STARTCHAR Tcaron
ENCODING 356
SWIDTH 411 0
DWIDTH 8 0
BBX 7 11 0 0
BITMAP
24
18
00
FE
10
10
10
10
10
10
10
ENDCHAR
STARTCHAR tcaron
ENCODING 357
SWIDTH 411 0
DWIDTH 8 0
BBX 4 11 2 0
BITMAP
90
60
00
40
40
F0
40
40
40
40
30
ENDCHAR
STARTCHAR Tbar
ENCODING 358
SWIDTH 411 0
DWIDTH 8 0
BBX 7 9 0 0
BITMAP
FE
10
10
7C
10
10
10
10
10
ENDCHAR
STARTCHAR tbar
ENCODING 359
SWIDTH 411 0
DWIDTH 8 0
BBX 4 10 2 0
BITMAP
40
40
40
F0
40
E0
40
40
40
30
ENDCHAR
STARTCHAR Utilde
ENCODING 360
SWIDTH 411 0
DWIDTH 8 0
BBX 6 11 1 0
BITMAP
64
98
00
84
84
84
84
84
84
84
78
ENDCHAR
STARTCHAR utilde
ENCODING 361
SWIDTH 411 0
DWIDTH 8 0
BBX 6 10 1 0
BITMAP
64
98
00
84
84
84
84
84
8C
74
ENDCHAR
STARTCHAR Umacron
ENCODING 362
SWIDTH 411 0
DWIDTH 8 0
BBX 6 11 1 0
BITMAP
78
00
84
84
84
84
84
84
84
84
78
ENDCHAR
STARTCHAR umacron
ENCODING 363
SWIDTH 411 0
DWIDTH 8 0
BBX 6 9 1 0
BITMAP
78
00
84
84
84
84
84
8C
74
ENDCHAR
STARTCHAR Ubreve
ENCODING 364
SWIDTH 411 0
DWIDTH 8 0
BBX 6 11 1 0
BITMAP
48
30
84
84
84
84
84
84
84
84
78
ENDCHAR
STARTCHAR ubreve
ENCODING 365
SWIDTH 411 0
DWIDTH 8 0
BBX 6 10 1 0
BITMAP
48
30
00
84
84
84
84
84
8C
74
ENDCHAR
STARTCHAR Uring
ENCODING 366
SWIDTH 411 0
DWIDTH 8 0
BBX 6 11 1 0
BITMAP
30
48
30
84
84
84
84
84
84
84
78
ENDCHAR
STARTCHAR uring
ENCODING 367
SWIDTH 411 0
DWIDTH 8 0
BBX 6 10 1 0
BITMAP
30
48
30
84
84
84
84
84
8C
74
ENDCHAR
STARTCHAR Uhungarumlaut
ENCODING 368
SWIDTH 411 0
DWIDTH 8 0
BBX 6 11 1 0
BITMAP
24
48
00
84
84
84
84
84
84
84
78
ENDCHAR
STARTCHAR uhungarumlaut
ENCODING 369
SWIDTH 411 0
DWIDTH 8 0
BBX 6 10 1 0
BITMAP
24
48
00
84
84
84
84
84
8C
74
ENDCHAR
STARTCHAR Uogonek
ENCODING 370
SWIDTH 411 0
DWIDTH 8 0
BBX 6 11 1 -2
BITMAP
84
84
84
84
84
84
84
84
78
10
0C
ENDCHAR
STARTCHAR uogonek
ENCODING 371
SWIDTH 411 0
DWIDTH 8 0
BBX 7 9 1 -2
BITMAP
84
84
84
84
84
8C
74
08
06
ENDCHAR
STARTCHAR Wcircumflex
ENCODING 372
SWIDTH 411 0
DWIDTH 8 0
BBX 7 11 0 0
BITMAP
18
24
00
82
82
92
92
92
AA
44
44
ENDCHAR
STARTCHAR wcircumflex
ENCODING 373
SWIDTH 411 0
DWIDTH 8 0
BBX 7 10 0 0
BITMAP
18
24
00
82
82
92
92
AA
44
44
ENDCHAR
STARTCHAR Ydieresis
ENCODING 376
SWIDTH 411 0
DWIDTH 8 0
BBX 7 11 0 0
BITMAP
44
44
00
82
82
44
44
28
10
10
10
ENDCHAR
STARTCHAR Zacute
ENCODING 377
SWIDTH 411 0
DWIDTH 8 0
BBX 6 11 1 0
BITMAP
10
20
00
FC
04
08
10
20
40
80
FC
ENDCHAR
STARTCHAR zacute
ENCODING 378
SWIDTH 411 0
DWIDTH 8 0
BBX 6 10 1 0
BITMAP
10
20
00
FC
08
10
20
40
80
FC
ENDCHAR
STARTCHAR Zdotaccent
ENCODING 379
SWIDTH 411 0
DWIDTH 8 0
BBX 6 11 1 0
BITMAP
20
20
00
FC
04
08
10
20
40
80
FC
ENDCHAR
STARTCHAR zdotaccent
ENCODING 380
SWIDTH 411 0
DWIDTH 8 0
BBX 6 10 1 0
BITMAP
20
20
00
FC
08
10
20
40
80
FC
ENDCHAR
STARTCHAR Zcaron
ENCODING 381
SWIDTH 411 0
DWIDTH 8 0
BBX 6 11 1 0
BITMAP
48
30
00
FC
04
08
10
20
40
80
FC
ENDCHAR
STARTCHAR zcaron
ENCODING 382
SWIDTH 411 0
DWIDTH 8 0
BBX 6 10 1 0
BITMAP
48
30
00
FC
08
10
20
40
80
FC
ENDCHAR
STARTCHAR longs
ENCODING 383
SWIDTH 411 0
DWIDTH 8 0
BBX 4 10 3 0
BITMAP
70
80
80
80
80
80
80
80
80
80
ENDCHAR
STARTCHAR uni0186
ENCODING 390
SWIDTH 411 0
DWIDTH 8 0
BBX 6 10 1 0
BITMAP
78
84
84
04
04
04
04
84
84
78
ENDCHAR
STARTCHAR uni018E
ENCODING 398
SWIDTH 411 0
DWIDTH 8 0
BBX 6 9 1 0
BITMAP
FC
04
04
04
3C
04
04
04
FC
ENDCHAR
STARTCHAR Schwa
ENCODING 399
SWIDTH 411 0
DWIDTH 8 0
BBX 6 9 1 0
BITMAP
78
84
04
04
FC
84
84
84
78
ENDCHAR
STARTCHAR uni0190
ENCODING 400
SWIDTH 411 0
DWIDTH 8 0
BBX 6 9 1 0
BITMAP
78
84
80
80
70
80
80
84
78
ENDCHAR
STARTCHAR florin
ENCODING 402
SWIDTH 411 0
DWIDTH 8 0
BBX 7 12 0 -2
BITMAP
0C
12
10
10
7C
10
10
10
10
10
90
60
ENDCHAR
STARTCHAR uni019D
ENCODING 413
SWIDTH 411 0
DWIDTH 8 0
BBX 7 11 0 -2
BITMAP
42
62
62
52
52
4A
4A
46
46
40
80
ENDCHAR
STARTCHAR uni019E
ENCODING 414
SWIDTH 411 0
DWIDTH 8 0
BBX 6 9 1 -2
BITMAP
F8
84
84
84
84
84
84
04
04
ENDCHAR
STARTCHAR Ezh
ENCODING 439
SWIDTH 411 0
DWIDTH 8 0
BBX 6 9 1 0
BITMAP
FC
04
08
10
38
04
84
84
78
ENDCHAR
STARTCHAR Scommaaccent
ENCODING 536
SWIDTH 411 0
DWIDTH 8 0
BBX 6 11 1 -2
BITMAP
78
84
80
80
78
04
04
84
78
20
40
ENDCHAR
STARTCHAR scommaaccent
ENCODING 537
SWIDTH 411 0
DWIDTH 8 0
BBX 6 9 1 -2
BITMAP
7C
80
80
78
04
04
F8
20
40
ENDCHAR
STARTCHAR Tcommaaccent
ENCODING 538
SWIDTH 411 0
DWIDTH 8 0
BBX 7 11 0 -2
BITMAP
FE
10
10
10
10
10
10
10
18
08
10
ENDCHAR
STARTCHAR tcommaaccent
ENCODING 539
SWIDTH 411 0
DWIDTH 8 0
BBX 4 12 2 -2
BITMAP
40
40
40
F0
40
40
40
40
40
30
10
20
ENDCHAR
STARTCHAR uni0232
ENCODING 562
SWIDTH 411 0
DWIDTH 8 0
BBX 7 11 0 0
BITMAP
7C
00
82
82
44
44
28
10
10
10
10
ENDCHAR
STARTCHAR uni0233
ENCODING 563
SWIDTH 411 0
DWIDTH 8 0
BBX 6 12 1 -3
BITMAP
78
00
84
84
84
84
84
8C
74
04
04
78
ENDCHAR
STARTCHAR dotlessj
ENCODING 567
SWIDTH 411 0
DWIDTH 8 0
BBX 4 10 2 -3
BITMAP
30
10
10
10
10
10
10
10
10
E0
ENDCHAR
STARTCHAR uni0254
ENCODING 596
SWIDTH 411 0
DWIDTH 8 0
BBX 6 7 1 -1
BITMAP
78
84
04
04
04
84
78
ENDCHAR
STARTCHAR uni0258
ENCODING 600
SWIDTH 411 0
DWIDTH 8 0
BBX 6 7 1 0
BITMAP
78
84
84
FC
04
04
F8
ENDCHAR
STARTCHAR schwa
ENCODING 601
SWIDTH 411 0
DWIDTH 8 0
BBX 6 7 1 0
BITMAP
F8
04
04
FC
84
84
78
ENDCHAR
STARTCHAR uni025B
ENCODING 603
SWIDTH 411 0
DWIDTH 8 0
BBX 6 7 1 0
BITMAP
78
84
80
70
80
84
78
ENDCHAR
STARTCHAR uni0272
ENCODING 626
SWIDTH 411 0
DWIDTH 8 0
BBX 7 9 0 -2
BITMAP
7C
42
42
42
42
42
42
40
80
ENDCHAR
STARTCHAR ezh
ENCODING 658
SWIDTH 411 0
DWIDTH 8 0
BBX 6 9 1 -2
BITMAP
FC
04
08
10
38
04
04
84
78
ENDCHAR
STARTCHAR commaturnedmod
ENCODING 699
SWIDTH 411 0
DWIDTH 8 0
BBX 2 3 3 8
BITMAP
40
80
80
ENDCHAR
STARTCHAR afii57929
ENCODING 700
SWIDTH 411 0
DWIDTH 8 0
BBX 2 3 3 8
BITMAP
40
40
80
ENDCHAR
STARTCHAR afii64937
ENCODING 701
SWIDTH 411 0
DWIDTH 8 0
BBX 2 3 3 8
BITMAP
80
80
40
ENDCHAR
STARTCHAR circumflex
ENCODING 710
SWIDTH 411 0
DWIDTH 8 0
BBX 4 2 2 9
BITMAP
60
90
ENDCHAR
STARTCHAR caron
ENCODING 711
SWIDTH 411 0
DWIDTH 8 0
BBX 4 2 2 9
BITMAP
90
60
ENDCHAR
STARTCHAR breve
ENCODING 728
SWIDTH 411 0
DWIDTH 8 0
BBX 4 2 2 9
BITMAP
90
60
ENDCHAR
STARTCHAR dotaccent
ENCODING 729
SWIDTH 411 0
DWIDTH 8 0
BBX 1 2 3 9
BITMAP
80
80
ENDCHAR
STARTCHAR ogonek
ENCODING 731
SWIDTH 411 0
DWIDTH 8 0
BBX 3 3 5 -3
BITMAP
40
80
60
ENDCHAR
STARTCHAR tilde
ENCODING 732
SWIDTH 411 0
DWIDTH 8 0
BBX 6 2 1 9
BITMAP
64
98
ENDCHAR
STARTCHAR hungarumlaut
ENCODING 733
SWIDTH 411 0
DWIDTH 8 0
BBX 5 2 2 9
BITMAP
48
90
ENDCHAR
STARTCHAR gravecomb
ENCODING 768
SWIDTH 411 0
DWIDTH 8 0
BBX 2 2 3 9
BITMAP
80
40
ENDCHAR
STARTCHAR acutecomb
ENCODING 769
SWIDTH 411 0
DWIDTH 8 0
BBX 2 2 3 9
BITMAP
40
80
ENDCHAR
STARTCHAR uni0302
ENCODING 770
SWIDTH 411 0
DWIDTH 8 0
BBX 4 2 2 9
BITMAP
60
90
ENDCHAR
STARTCHAR tildecomb
ENCODING 771
SWIDTH 411 0
DWIDTH 8 0
BBX 6 2 1 9
BITMAP
64
98
ENDCHAR
STARTCHAR uni0306
ENCODING 774
SWIDTH 411 0
DWIDTH 8 0
BBX 4 2 2 9
BITMAP
90
60
ENDCHAR
STARTCHAR uni030C
ENCODING 780
SWIDTH 411 0
DWIDTH 8 0
BBX 4 2 2 9
BITMAP
90
60
ENDCHAR
STARTCHAR uni0329
ENCODING 809
SWIDTH 411 0
DWIDTH 8 0
BBX 1 2 3 -3
BITMAP
80
80
ENDCHAR
STARTCHAR tonos
ENCODING 900
SWIDTH 411 0
DWIDTH 8 0
BBX 2 2 0 9
BITMAP
40
80
ENDCHAR
STARTCHAR dieresistonos
ENCODING 901
SWIDTH 411 0
DWIDTH 8 0
BBX 4 4 2 7
BITMAP
20
40
00
90
ENDCHAR
STARTCHAR Alphatonos
ENCODING 902
SWIDTH 411 0
DWIDTH 8 0
BBX 7 11 0 0
BITMAP
40
80
3C
42
42
42
7E
42
42
42
42
ENDCHAR
STARTCHAR anoteleia
ENCODING 903
SWIDTH 411 0
DWIDTH 8 0
BBX 1 2 3 4
BITMAP
80
80
ENDCHAR
STARTCHAR Epsilontonos
ENCODING 904
SWIDTH 411 0
DWIDTH 8 0
BBX 7 11 0 0
BITMAP
40
80
7E
40
40
40
78
40
40
40
7E
ENDCHAR
STARTCHAR Etatonos
ENCODING 905
SWIDTH 411 0
DWIDTH 8 0
BBX 7 11 0 0
BITMAP
40
80
42
42
42
42
7E
42
42
42
42
ENDCHAR
STARTCHAR Iotatonos
ENCODING 906
SWIDTH 411 0
DWIDTH 8 0
BBX 5 11 0 0
BITMAP
40
80
38
10
10
10
10
10
10
10
38
ENDCHAR
STARTCHAR Omicrontonos
ENCODING 908
SWIDTH 411 0
DWIDTH 8 0
BBX 7 11 0 0
BITMAP
40
80
3C
42
42
42
42
42
42
42
3C
ENDCHAR
STARTCHAR Upsilontonos
ENCODING 910
SWIDTH 411 0
DWIDTH 8 0
BBX 7 11 0 0
BITMAP
40
80
00
82
82
44
44
28
10
10
10
ENDCHAR
STARTCHAR Omegatonos
ENCODING 911
SWIDTH 411 0
DWIDTH 8 0
BBX 7 11 0 0
BITMAP
40
80
3C
42
42
42
42
42
24
24
66
ENDCHAR
STARTCHAR iotadieresistonos
ENCODING 912
SWIDTH 411 0
DWIDTH 8 0
BBX 5 11 1 0
BITMAP
10
20
90
90
00
60
20
20
20
20
18
ENDCHAR
STARTCHAR Alpha
ENCODING 913
SWIDTH 411 0
DWIDTH 8 0
BBX 6 9 1 0
BITMAP
78
84
84
84
FC
84
84
84
84
ENDCHAR
STARTCHAR Beta
ENCODING 914
SWIDTH 411 0
DWIDTH 8 0
BBX 6 9 1 0
BITMAP
F8
84
84
84
F8
84
84
84
F8
ENDCHAR
STARTCHAR Gamma
ENCODING 915
SWIDTH 411 0
DWIDTH 8 0
BBX 6 9 1 0
BITMAP
FC
80
80
80
80
80
80
80
80
ENDCHAR
STARTCHAR Delta
ENCODING 916
SWIDTH 411 0
DWIDTH 8 0
BBX 7 9 0 0
BITMAP
10
10
28
28
44
44
44
82
FE
ENDCHAR
STARTCHAR Epsilon
ENCODING 917
SWIDTH 411 0
DWIDTH 8 0
BBX 6 9 1 0
BITMAP
FC
80
80
80
F0
80
80
80
FC
ENDCHAR
STARTCHAR Zeta
ENCODING 918
SWIDTH 411 0
DWIDTH 8 0
BBX 6 9 1 0
BITMAP
FC
04
08
10
20
40
80
80
FC
ENDCHAR
STARTCHAR Eta
ENCODING 919
SWIDTH 411 0
DWIDTH 8 0
BBX 6 9 1 0
BITMAP
84
84
84
84
FC
84
84
84
84
ENDCHAR
STARTCHAR Theta
ENCODING 920
SWIDTH 411 0
DWIDTH 8 0
BBX 6 9 1 0
BITMAP
78
84
84
84
B4
84
84
84
78
ENDCHAR
STARTCHAR Iota
ENCODING 921
SWIDTH 411 0
DWIDTH 8 0
BBX 3 9 2 0
BITMAP
E0
40
40
40
40
40
40
40
E0
ENDCHAR
STARTCHAR Kappa
ENCODING 922
SWIDTH 411 0
DWIDTH 8 0
BBX 6 9 1 0
BITMAP
84
88
90
A0
C0
A0
90
88
84
ENDCHAR
STARTCHAR Lambda
ENCODING 923
SWIDTH 411 0
DWIDTH 8 0
BBX 7 9 0 0
BITMAP
10
10
28
28
44
44
44
82
82
ENDCHAR
STARTCHAR Mu
ENCODING 924
SWIDTH 411 0
DWIDTH 8 0
BBX 7 9 0 0
BITMAP
82
C6
AA
92
92
82
82
82
82
ENDCHAR
STARTCHAR Nu
ENCODING 925
SWIDTH 411 0
DWIDTH 8 0
BBX 6 9 1 0
BITMAP
84
C4
C4
A4
A4
94
94
8C
8C
ENDCHAR
STARTCHAR Xi
ENCODING 926
SWIDTH 411 0
DWIDTH 8 0
BBX 6 9 1 0
BITMAP
FC
00
00
00
78
00
00
00
FC
ENDCHAR
STARTCHAR Omicron
ENCODING 927
SWIDTH 411 0
DWIDTH 8 0
BBX 6 9 1 0
BITMAP
78
84
84
84
84
84
84
84
78
ENDCHAR
STARTCHAR Pi
ENCODING 928
SWIDTH 411 0
DWIDTH 8 0
BBX 6 9 1 0
BITMAP
FC
84
84
84
84
84
84
84
84
ENDCHAR
STARTCHAR Rho
ENCODING 929
SWIDTH 411 0
DWIDTH 8 0
BBX 6 9 1 0
BITMAP
F8
84
84
84
F8
80
80
80
80
ENDCHAR
STARTCHAR Sigma
ENCODING 931
SWIDTH 411 0
DWIDTH 8 0
BBX 6 9 1 0
BITMAP
FC
80
40
20
10
20
40
80
FC
ENDCHAR
STARTCHAR Tau
ENCODING 932
SWIDTH 411 0
DWIDTH 8 0
BBX 7 9 0 0
BITMAP
FE
10
10
10
10
10
10
10
10
ENDCHAR
STARTCHAR Upsilon
ENCODING 933
SWIDTH 411 0
DWIDTH 8 0
BBX 7 9 0 0
BITMAP
82
82
44
44
28
10
10
10
10
ENDCHAR
STARTCHAR Phi
ENCODING 934
SWIDTH 411 0
DWIDTH 8 0
BBX 7 10 0 -1
BITMAP
10
7C
92
92
92
92
92
92
7C
10
ENDCHAR
STARTCHAR Chi
ENCODING 935
SWIDTH 411 0
DWIDTH 8 0
BBX 6 9 1 0
BITMAP
84
84
48
48
30
48
48
84
84
ENDCHAR
STARTCHAR Psi
ENCODING 936
SWIDTH 411 0
DWIDTH 8 0
BBX 7 9 0 0
BITMAP
92
92
92
92
92
92
7C
10
10
ENDCHAR
STARTCHAR Omega
ENCODING 937
SWIDTH 411 0
DWIDTH 8 0
BBX 6 9 1 0
BITMAP
78
84
84
84
84
84
48
48
CC
ENDCHAR
STARTCHAR Iotadieresis
ENCODING 938
SWIDTH 411 0
DWIDTH 8 0
BBX 5 11 1 0
BITMAP
88
88
00
70
20
20
20
20
20
20
70
ENDCHAR
STARTCHAR Upsilondieresis
ENCODING 939
SWIDTH 411 0
DWIDTH 8 0
BBX 7 11 0 0
BITMAP
44
44
00
82
82
44
44
28
10
10
10
ENDCHAR
STARTCHAR alphatonos
ENCODING 940
SWIDTH 411 0
DWIDTH 8 0
BBX 6 10 1 0
BITMAP
10
20
00
74
8C
88
88
88
8C
74
ENDCHAR
STARTCHAR epsilontonos
ENCODING 941
SWIDTH 411 0
DWIDTH 8 0
BBX 6 10 1 0
BITMAP
10
20
00
78
84
80
70
80
84
78
ENDCHAR
STARTCHAR etatonos
ENCODING 942
SWIDTH 411 0
DWIDTH 8 0
BBX 6 12 1 -2
BITMAP
10
20
00
F8
84
84
84
84
84
84
04
04
ENDCHAR
STARTCHAR iotatonos
ENCODING 943
SWIDTH 411 0
DWIDTH 8 0
BBX 4 10 2 0
BITMAP
20
40
00
C0
40
40
40
40
40
30
ENDCHAR
STARTCHAR upsilondieresistonos
ENCODING 944
SWIDTH 411 0
DWIDTH 8 0
BBX 6 11 1 0
BITMAP
10
20
00
48
00
84
84
84
84
84
78
ENDCHAR
STARTCHAR alpha
ENCODING 945
SWIDTH 411 0
DWIDTH 8 0
BBX 6 7 1 0
BITMAP
74
8C
88
88
88
8C
74
ENDCHAR
STARTCHAR beta
ENCODING 946
SWIDTH 411 0
DWIDTH 8 0
BBX 6 11 1 -2
BITMAP
70
88
88
90
F8
84
84
84
F8
80
80
ENDCHAR
STARTCHAR gamma
ENCODING 947
SWIDTH 411 0
DWIDTH 8 0
BBX 7 9 0 -2
BITMAP
82
82
44
44
28
28
10
10
10
ENDCHAR
STARTCHAR delta
ENCODING 948
SWIDTH 411 0
DWIDTH 8 0
BBX 6 9 1 0
BITMAP
7C
20
10
78
84
84
84
84
78
ENDCHAR
STARTCHAR epsilon
ENCODING 949
SWIDTH 411 0
DWIDTH 8 0
BBX 6 7 1 0
BITMAP
78
84
80
70
80
84
78
ENDCHAR
STARTCHAR zeta
ENCODING 950
SWIDTH 411 0
DWIDTH 8 0
BBX 6 11 1 -2
BITMAP
F8
08
10
20
40
80
80
80
78
04
08
ENDCHAR
STARTCHAR eta
ENCODING 951
SWIDTH 411 0
DWIDTH 8 0
BBX 6 9 1 -2
BITMAP
F8
84
84
84
84
84
84
04
04
ENDCHAR
STARTCHAR theta
ENCODING 952
SWIDTH 411 0
DWIDTH 8 0
BBX 5 9 1 0
BITMAP
70
88
88
88
F8
88
88
88
70
ENDCHAR
STARTCHAR iota
ENCODING 953
SWIDTH 411 0
DWIDTH 8 0
BBX 4 7 2 0
BITMAP
C0
40
40
40
40
40
30
ENDCHAR
STARTCHAR kappa
ENCODING 954
SWIDTH 411 0
DWIDTH 8 0
BBX 6 7 1 0
BITMAP
84
88
90
E0
90
88
84
ENDCHAR
STARTCHAR lambda
ENCODING 955
SWIDTH 411 0
DWIDTH 8 0
BBX 7 9 0 0
BITMAP
20
20
10
10
28
28
44
44
82
ENDCHAR
STARTCHAR mugreek
ENCODING 956
SWIDTH 411 0
DWIDTH 8 0
BBX 6 9 1 -2
BITMAP
84
84
84
84
84
8C
F4
80
80
ENDCHAR
STARTCHAR nu
ENCODING 957
SWIDTH 411 0
DWIDTH 8 0
BBX 6 6 1 0
BITMAP
84
84
48
48
30
30
ENDCHAR
STARTCHAR xi
ENCODING 958
SWIDTH 411 0
DWIDTH 8 0
BBX 6 11 1 -2
BITMAP
7C
80
80
80
78
80
80
80
78
04
08
ENDCHAR
STARTCHAR omicron
ENCODING 959
SWIDTH 411 0
DWIDTH 8 0
BBX 6 7 1 0
BITMAP
78
84
84
84
84
84
78
ENDCHAR
STARTCHAR pi
ENCODING 960
SWIDTH 411 0
DWIDTH 8 0
BBX 6 7 1 0
BITMAP
FC
84
84
84
84
84
84
ENDCHAR
STARTCHAR rho
ENCODING 961
SWIDTH 411 0
DWIDTH 8 0
BBX 6 9 1 -2
BITMAP
78
84
84
84
84
84
F8
80
80
ENDCHAR
STARTCHAR sigma1
ENCODING 962
SWIDTH 411 0
DWIDTH 8 0
BBX 6 9 1 -2
BITMAP
78
84
80
80
80
80
78
04
08
ENDCHAR
STARTCHAR sigma
ENCODING 963
SWIDTH 411 0
DWIDTH 8 0
BBX 6 7 1 0
BITMAP
7C
88
88
88
88
88
70
ENDCHAR
STARTCHAR tau
ENCODING 964
SWIDTH 411 0
DWIDTH 8 0
BBX 7 7 0 0
BITMAP
FE
10
10
10
10
10
0C
ENDCHAR
STARTCHAR upsilon
ENCODING 965
SWIDTH 411 0
DWIDTH 8 0
BBX 6 7 1 0
BITMAP
84
84
84
84
84
84
78
ENDCHAR
STARTCHAR phi
ENCODING 966
SWIDTH 411 0
DWIDTH 8 0
BBX 7 9 0 -2
BITMAP
4C
92
92
92
92
92
7C
10
10
ENDCHAR
STARTCHAR chi
ENCODING 967
SWIDTH 411 0
DWIDTH 8 0
BBX 6 9 1 -2
BITMAP
84
84
48
48
30
48
48
84
84
ENDCHAR
STARTCHAR psi
ENCODING 968
SWIDTH 411 0
DWIDTH 8 0
BBX 7 9 0 -2
BITMAP
92
92
92
92
92
92
7C
10
10
ENDCHAR
STARTCHAR omega
ENCODING 969
SWIDTH 411 0
DWIDTH 8 0
BBX 7 7 0 0
BITMAP
44
82
92
92
92
92
6C
ENDCHAR
STARTCHAR iotadieresis
ENCODING 970
SWIDTH 411 0
DWIDTH 8 0
BBX 5 10 1 0
BITMAP
90
90
00
60
20
20
20
20
20
18
ENDCHAR
STARTCHAR upsilondieresis
ENCODING 971
SWIDTH 411 0
DWIDTH 8 0
BBX 6 10 1 0
BITMAP
48
48
00
84
84
84
84
84
84
78
ENDCHAR
STARTCHAR omicrontonos
ENCODING 972
SWIDTH 411 0
DWIDTH 8 0
BBX 6 10 1 0
BITMAP
10
20
00
78
84
84
84
84
84
78
ENDCHAR
STARTCHAR upsilontonos
ENCODING 973
SWIDTH 411 0
DWIDTH 8 0
BBX 6 10 1 0
BITMAP
10
20
00
84
84
84
84
84
84
78
ENDCHAR
STARTCHAR omegatonos
ENCODING 974
SWIDTH 411 0
DWIDTH 8 0
BBX 7 10 0 0
BITMAP
08
10
00
44
82
92
92
92
92
6C
ENDCHAR
STARTCHAR uni03F3
ENCODING 1011
SWIDTH 411 0
DWIDTH 8 0
BBX 5 12 1 -3
BITMAP
08
08
00
18
08
08
08
08
08
88
88
70
ENDCHAR
STARTCHAR uni03F4
ENCODING 1012
SWIDTH 411 0
DWIDTH 8 0
BBX 6 10 1 -1
BITMAP
78
84
84
84
FC
84
84
84
84
78
ENDCHAR
STARTCHAR uni0400
ENCODING 1024
SWIDTH 411 0
DWIDTH 8 0
BBX 6 11 1 0
BITMAP
20
10
00
FC
80
80
F0
80
80
80
FC
ENDCHAR
STARTCHAR afii10023
ENCODING 1025
SWIDTH 411 0
DWIDTH 8 0
BBX 6 11 1 0
BITMAP
48
48
00
FC
80
80
F0
80
80
80
FC
ENDCHAR
STARTCHAR afii10051
ENCODING 1026
SWIDTH 411 0
DWIDTH 8 0
BBX 7 11 0 -2
BITMAP
F8
20
20
3C
22
22
22
22
22
02
04
ENDCHAR
STARTCHAR afii10052
ENCODING 1027
SWIDTH 411 0
DWIDTH 8 0
BBX 6 11 1 0
BITMAP
10
20
00
FC
80
80
80
80
80
80
80
ENDCHAR
STARTCHAR afii10053
ENCODING 1028
SWIDTH 411 0
DWIDTH 8 0
BBX 6 9 1 0
BITMAP
78
84
80
80
F0
80
80
84
78
ENDCHAR
STARTCHAR afii10054
ENCODING 1029
SWIDTH 411 0
DWIDTH 8 0
BBX 6 9 1 0
BITMAP
78
84
80
80
78
04
04
84
78
ENDCHAR
STARTCHAR afii10055
ENCODING 1030
SWIDTH 411 0
DWIDTH 8 0
BBX 3 9 2 0
BITMAP
E0
40
40
40
40
40
40
40
E0
ENDCHAR
STARTCHAR afii10056
ENCODING 1031
SWIDTH 411 0
DWIDTH 8 0
BBX 5 11 1 0
BITMAP
88
88
00
70
20
20
20
20
20
20
70
ENDCHAR
STARTCHAR afii10057
ENCODING 1032
SWIDTH 411 0
DWIDTH 8 0
BBX 6 9 1 0
BITMAP
04
04
04
04
04
04
84
84
78
ENDCHAR
STARTCHAR afii10058
ENCODING 1033
SWIDTH 411 0
DWIDTH 8 0
BBX 7 9 0 0
BITMAP
30
50
90
9C
92
92
92
92
9C
ENDCHAR
STARTCHAR afii10059
ENCODING 1034
SWIDTH 411 0
DWIDTH 8 0
BBX 7 9 0 0
BITMAP
90
90
90
9C
F2
92
92
92
9C
ENDCHAR
STARTCHAR afii10060
ENCODING 1035
SWIDTH 411 0
DWIDTH 8 0
BBX 7 9 0 0
BITMAP
F8
20
20
3C
22
22
22
22
22
ENDCHAR
STARTCHAR afii10061
ENCODING 1036
SWIDTH 411 0
DWIDTH 8 0
BBX 6 11 1 0
BITMAP
10
20
84
88
90
A0
C0
A0
90
88
84
ENDCHAR
STARTCHAR uni040D
ENCODING 1037
SWIDTH 411 0
DWIDTH 8 0
BBX 6 11 1 0
BITMAP
20
10
84
8C
8C
94
94
A4
A4
C4
C4
ENDCHAR
STARTCHAR afii10062
ENCODING 1038
SWIDTH 411 0
DWIDTH 8 0
BBX 6 11 1 0
BITMAP
48
30
84
84
84
84
7C
04
04
04
78
ENDCHAR
STARTCHAR afii10145
ENCODING 1039
SWIDTH 411 0
DWIDTH 8 0
BBX 6 11 1 -2
BITMAP
84
84
84
84
84
84
84
84
FC
30
30
ENDCHAR
STARTCHAR afii10017
ENCODING 1040
SWIDTH 411 0
DWIDTH 8 0
BBX 6 9 1 0
BITMAP
78
84
84
84
FC
84
84
84
84
ENDCHAR
STARTCHAR afii10018
ENCODING 1041
SWIDTH 411 0
DWIDTH 8 0
BBX 6 9 1 0
BITMAP
F8
80
80
F8
84
84
84
84
F8
ENDCHAR
STARTCHAR afii10019
ENCODING 1042
SWIDTH 411 0
DWIDTH 8 0
BBX 6 9 1 0
BITMAP
F8
84
84
84
F8
84
84
84
F8
ENDCHAR
STARTCHAR afii10020
ENCODING 1043
SWIDTH 411 0
DWIDTH 8 0
BBX 6 9 1 0
BITMAP
FC
80
80
80
80
80
80
80
80
ENDCHAR
STARTCHAR afii10021
ENCODING 1044
SWIDTH 411 0
DWIDTH 8 0
BBX 7 10 0 -1
BITMAP
3C
44
44
44
44
44
44
44
FE
82
ENDCHAR
STARTCHAR afii10022
ENCODING 1045
SWIDTH 411 0
DWIDTH 8 0
BBX 6 9 1 0
BITMAP
FC
80
80
80
F0
80
80
80
FC
ENDCHAR
STARTCHAR afii10024
ENCODING 1046
SWIDTH 411 0
DWIDTH 8 0
BBX 7 9 0 0
BITMAP
92
92
92
54
38
54
92
92
92
ENDCHAR
STARTCHAR afii10025
ENCODING 1047
SWIDTH 411 0
DWIDTH 8 0
BBX 6 9 1 0
BITMAP
78
84
84
04
38
04
84
84
78
ENDCHAR
STARTCHAR afii10026
ENCODING 1048
SWIDTH 411 0
DWIDTH 8 0
BBX 6 9 1 0
BITMAP
84
8C
8C
94
94
A4
A4
C4
C4
ENDCHAR
STARTCHAR afii10027
ENCODING 1049
SWIDTH 411 0
DWIDTH 8 0
BBX 6 11 1 0
BITMAP
48
30
84
8C
8C
94
94
A4
A4
C4
C4
ENDCHAR
STARTCHAR afii10028
ENCODING 1050
SWIDTH 411 0
DWIDTH 8 0
BBX 6 9 1 0
BITMAP
84
88
90
A0
C0
A0
90
88
84
ENDCHAR
STARTCHAR afii10029
ENCODING 1051
SWIDTH 411 0
DWIDTH 8 0
BBX 6 9 1 0
BITMAP
1C
24
44
44
44
44
44
44
84
ENDCHAR
STARTCHAR afii10030
ENCODING 1052
SWIDTH 411 0
DWIDTH 8 0
BBX 7 9 0 0
BITMAP
82
C6
AA
92
92
82
82
82
82
ENDCHAR
STARTCHAR afii10031
ENCODING 1053
SWIDTH 411 0
DWIDTH 8 0
BBX 6 9 1 0
BITMAP
84
84
84
84
FC
84
84
84
84
ENDCHAR
STARTCHAR afii10032
ENCODING 1054
SWIDTH 411 0
DWIDTH 8 0
BBX 6 9 1 0
BITMAP
78
84
84
84
84
84
84
84
78
ENDCHAR
STARTCHAR afii10033
ENCODING 1055
SWIDTH 411 0
DWIDTH 8 0
BBX 6 9 1 0
BITMAP
FC
84
84
84
84
84
84
84
84
ENDCHAR
STARTCHAR afii10034
ENCODING 1056
SWIDTH 411 0
DWIDTH 8 0
BBX 6 9 1 0
BITMAP
F8
84
84
84
F8
80
80
80
80
ENDCHAR
STARTCHAR afii10035
ENCODING 1057
SWIDTH 411 0
DWIDTH 8 0
BBX 6 9 1 0
BITMAP
78
84
80
80
80
80
80
84
78
ENDCHAR
STARTCHAR afii10036
ENCODING 1058
SWIDTH 411 0
DWIDTH 8 0
BBX 7 9 0 0
BITMAP
FE
10
10
10
10
10
10
10
10
ENDCHAR
STARTCHAR afii10037
ENCODING 1059
SWIDTH 411 0
DWIDTH 8 0
BBX 6 9 1 0
BITMAP
84
84
84
84
7C
04
04
04
78
ENDCHAR
STARTCHAR afii10038
ENCODING 1060
SWIDTH 411 0
DWIDTH 8 0
BBX 7 11 0 -1
BITMAP
10
7C
92
92
92
92
92
92
92
7C
10
ENDCHAR
STARTCHAR afii10039
ENCODING 1061
SWIDTH 411 0
DWIDTH 8 0
BBX 6 9 1 0
BITMAP
84
84
48
48
30
48
48
84
84
ENDCHAR
STARTCHAR afii10040
ENCODING 1062
SWIDTH 411 0
DWIDTH 8 0
BBX 7 11 1 -2
BITMAP
84
84
84
84
84
84
84
84
7E
02
02
ENDCHAR
STARTCHAR afii10041
ENCODING 1063
SWIDTH 411 0
DWIDTH 8 0
BBX 6 9 1 0
BITMAP
84
84
84
84
7C
04
04
04
04
ENDCHAR
STARTCHAR afii10042
ENCODING 1064
SWIDTH 411 0
DWIDTH 8 0
BBX 7 9 0 0
BITMAP
92
92
92
92
92
92
92
92
7E
ENDCHAR
STARTCHAR afii10043
ENCODING 1065
SWIDTH 411 0
DWIDTH 8 0
BBX 8 11 0 -2
BITMAP
92
92
92
92
92
92
92
92
7F
01
01
ENDCHAR
STARTCHAR afii10044
ENCODING 1066
SWIDTH 411 0
DWIDTH 8 0
BBX 7 10 0 0
BITMAP
C0
40
40
7C
42
42
42
42
42
7C
ENDCHAR
STARTCHAR afii10045
ENCODING 1067
SWIDTH 411 0
DWIDTH 8 0
BBX 7 10 0 0
BITMAP
82
82
82
F2
8A
8A
8A
8A
8A
F2
ENDCHAR
STARTCHAR afii10046
ENCODING 1068
SWIDTH 411 0
DWIDTH 8 0
BBX 6 10 1 0
BITMAP
80
80
80
F8
84
84
84
84
84
F8
ENDCHAR
STARTCHAR afii10047
ENCODING 1069
SWIDTH 411 0
DWIDTH 8 0
BBX 6 9 1 0
BITMAP
78
84
04
04
3C
04
04
84
78
ENDCHAR
STARTCHAR afii10048
ENCODING 1070
SWIDTH 411 0
DWIDTH 8 0
BBX 7 10 0 0
BITMAP
8C
92
92
92
92
F2
92
92
92
8C
ENDCHAR
STARTCHAR afii10049
ENCODING 1071
SWIDTH 411 0
DWIDTH 8 0
BBX 6 10 1 0
BITMAP
7C
84
84
84
84
7C
24
44
84
84
ENDCHAR
STARTCHAR afii10065
ENCODING 1072
SWIDTH 411 0
DWIDTH 8 0
BBX 6 7 1 0
BITMAP
78
04
7C
84
84
8C
74
ENDCHAR
STARTCHAR afii10066
ENCODING 1073
SWIDTH 411 0
DWIDTH 8 0
BBX 6 10 1 0
BITMAP
78
80
80
F8
84
84
84
84
84
F8
ENDCHAR
STARTCHAR afii10067
ENCODING 1074
SWIDTH 411 0
DWIDTH 8 0
BBX 6 10 1 0
BITMAP
70
88
88
90
F8
84
84
84
84
F8
ENDCHAR
STARTCHAR afii10068
ENCODING 1075
SWIDTH 411 0
DWIDTH 8 0
BBX 6 7 1 0
BITMAP
78
04
04
78
80
80
78
ENDCHAR
STARTCHAR afii10069
ENCODING 1076
SWIDTH 411 0
DWIDTH 8 0
BBX 6 10 1 -3
BITMAP
7C
84
84
84
84
8C
74
04
04
78
ENDCHAR
STARTCHAR afii10070
ENCODING 1077
SWIDTH 411 0
DWIDTH 8 0
BBX 6 7 1 0
BITMAP
78
84
84
FC
80
80
78
ENDCHAR
STARTCHAR afii10072
ENCODING 1078
SWIDTH 411 0
DWIDTH 8 0
BBX 7 7 0 0
BITMAP
92
92
54
38
54
92
92
ENDCHAR
STARTCHAR afii10073
ENCODING 1079
SWIDTH 411 0
DWIDTH 8 0
BBX 6 7 1 0
BITMAP
78
84
04
38
04
84
78
ENDCHAR
STARTCHAR afii10074
ENCODING 1080
SWIDTH 411 0
DWIDTH 8 0
BBX 6 7 1 0
BITMAP
84
84
84
84
84
8C
74
ENDCHAR
STARTCHAR afii10075
ENCODING 1081
SWIDTH 411 0
DWIDTH 8 0
BBX 6 10 1 0
BITMAP
48
30
00
84
84
84
84
84
8C
74
ENDCHAR
STARTCHAR afii10076
ENCODING 1082
SWIDTH 411 0
DWIDTH 8 0
BBX 6 7 1 0
BITMAP
84
88
90
E0
90
88
84
ENDCHAR
STARTCHAR afii10077
ENCODING 1083
SWIDTH 411 0
DWIDTH 8 0
BBX 6 7 1 0
BITMAP
3C
44
44
44
44
44
84
ENDCHAR
STARTCHAR afii10078
ENCODING 1084
SWIDTH 411 0
DWIDTH 8 0
BBX 7 7 0 0
BITMAP
82
C6
AA
92
82
82
82
ENDCHAR
STARTCHAR afii10079
ENCODING 1085
SWIDTH 411 0
DWIDTH 8 0
BBX 6 7 1 0
BITMAP
84
84
84
FC
84
84
84
ENDCHAR
STARTCHAR afii10080
ENCODING 1086
SWIDTH 411 0
DWIDTH 8 0
BBX 6 7 1 0
BITMAP
78
84
84
84
84
84
78
ENDCHAR
STARTCHAR afii10081
ENCODING 1087
SWIDTH 411 0
DWIDTH 8 0
BBX 6 7 1 0
BITMAP
FC
84
84
84
84
84
84
ENDCHAR
STARTCHAR afii10082
ENCODING 1088
SWIDTH 411 0
DWIDTH 8 0
BBX 6 10 1 -3
BITMAP
B8
C4
84
84
84
84
F8
80
80
80
ENDCHAR
STARTCHAR afii10083
ENCODING 1089
SWIDTH 411 0
DWIDTH 8 0
BBX 6 7 1 0
BITMAP
78
84
80
80
80
84
78
ENDCHAR
STARTCHAR afii10084
ENCODING 1090
SWIDTH 411 0
DWIDTH 8 0
BBX 7 7 0 0
BITMAP
FE
10
10
10
10
10
10
ENDCHAR
STARTCHAR afii10085
ENCODING 1091
SWIDTH 411 0
DWIDTH 8 0
BBX 6 10 1 -3
BITMAP
84
84
84
84
84
8C
74
04
04
78
ENDCHAR
STARTCHAR afii10086
ENCODING 1092
SWIDTH 411 0
DWIDTH 8 0
BBX 7 9 0 -1
BITMAP
10
7C
92
92
92
92
92
7C
10
ENDCHAR
STARTCHAR afii10087
ENCODING 1093
SWIDTH 411 0
DWIDTH 8 0
BBX 6 7 1 0
BITMAP
84
84
48
30
48
84
84
ENDCHAR
STARTCHAR afii10088
ENCODING 1094
SWIDTH 411 0
DWIDTH 8 0
BBX 7 9 1 -2
BITMAP
84
84
84
84
84
84
7E
02
02
ENDCHAR
STARTCHAR afii10089
ENCODING 1095
SWIDTH 411 0
DWIDTH 8 0
BBX 6 7 1 0
BITMAP
84
84
84
7C
04
04
04
ENDCHAR
STARTCHAR afii10090
ENCODING 1096
SWIDTH 411 0
DWIDTH 8 0
BBX 7 7 0 0
BITMAP
92
92
92
92
92
92
7E
ENDCHAR
STARTCHAR afii10091
ENCODING 1097
SWIDTH 411 0
DWIDTH 8 0
BBX 8 9 0 -2
BITMAP
92
92
92
92
92
92
7F
01
01
ENDCHAR
STARTCHAR afii10092
ENCODING 1098
SWIDTH 411 0
DWIDTH 8 0
BBX 6 7 1 0
BITMAP
C0
40
78
44
44
44
78
ENDCHAR
STARTCHAR afii10093
ENCODING 1099
SWIDTH 411 0
DWIDTH 8 0
BBX 7 7 0 0
BITMAP
82
82
F2
8A
8A
8A
F2
ENDCHAR
STARTCHAR afii10094
ENCODING 1100
SWIDTH 411 0
DWIDTH 8 0
BBX 5 7 1 0
BITMAP
80
80
F0
88
88
88
F0
ENDCHAR
STARTCHAR afii10095
ENCODING 1101
SWIDTH 411 0
DWIDTH 8 0
BBX 6 7 1 0
BITMAP
78
84
04
3C
04
84
78
ENDCHAR
STARTCHAR afii10096
ENCODING 1102
SWIDTH 411 0
DWIDTH 8 0
BBX 7 7 0 0
BITMAP
8C
92
92
F2
92
92
8C
ENDCHAR
STARTCHAR afii10097
ENCODING 1103
SWIDTH 411 0
DWIDTH 8 0
BBX 6 7 1 0
BITMAP
7C
84
84
7C
24
44
84
ENDCHAR
STARTCHAR uni0450
ENCODING 1104
SWIDTH 411 0
DWIDTH 8 0
BBX 6 10 1 0
BITMAP
20
10
00
78
84
84
FC
80
80
78
ENDCHAR
STARTCHAR afii10071
ENCODING 1105
SWIDTH 411 0
DWIDTH 8 0
BBX 6 10 1 0
BITMAP
48
48
00
78
84
84
FC
80
80
78
ENDCHAR
STARTCHAR afii10099
ENCODING 1106
SWIDTH 411 0
DWIDTH 8 0
BBX 7 12 0 -2
BITMAP
40
F8
40
7C
42
42
42
42
42
42
02
04
ENDCHAR
STARTCHAR afii10100
ENCODING 1107
SWIDTH 411 0
DWIDTH 8 0
BBX 6 10 1 0
BITMAP
10
20
00
78
04
04
78
80
80
78
ENDCHAR
STARTCHAR afii10101
ENCODING 1108
SWIDTH 411 0
DWIDTH 8 0
BBX 6 7 1 0
BITMAP
78
84
80
F0
80
84
78
ENDCHAR
STARTCHAR afii10102
ENCODING 1109
SWIDTH 411 0
DWIDTH 8 0
BBX 6 7 1 0
BITMAP
7C
80
80
78
04
04
F8
ENDCHAR
STARTCHAR afii10103
ENCODING 1110
SWIDTH 411 0
DWIDTH 8 0
BBX 5 10 1 0
BITMAP
20
20
00
E0
20
20
20
20
20
38
ENDCHAR
STARTCHAR afii10104
ENCODING 1111
SWIDTH 411 0
DWIDTH 8 0
BBX 5 10 1 0
BITMAP
90
90
00
E0
20
20
20
20
20
38
ENDCHAR
STARTCHAR afii10105
ENCODING 1112
SWIDTH 411 0
DWIDTH 8 0
BBX 4 13 2 -3
BITMAP
10
10
00
30
10
10
10
10
10
10
10
10
E0
ENDCHAR
STARTCHAR afii10106
ENCODING 1113
SWIDTH 411 0
DWIDTH 8 0
BBX 7 7 0 0
BITMAP
70
90
9C
92
92
92
9C
ENDCHAR
STARTCHAR afii10107
ENCODING 1114
SWIDTH 411 0
DWIDTH 8 0
BBX 7 7 0 0
BITMAP
90
90
9C
F2
92
92
9C
ENDCHAR
STARTCHAR afii10108
ENCODING 1115
SWIDTH 411 0
DWIDTH 8 0
BBX 7 10 0 0
BITMAP
40
F8
40
7C
42
42
42
42
42
42
ENDCHAR
STARTCHAR afii10109
ENCODING 1116
SWIDTH 411 0
DWIDTH 8 0
BBX 6 10 1 0
BITMAP
10
20
00
84
88
90
E0
90
88
84
ENDCHAR
STARTCHAR uni045D
ENCODING 1117
SWIDTH 411 0
DWIDTH 8 0
BBX 6 10 1 0
BITMAP
20
10
00
84
84
84
84
84
8C
74
ENDCHAR
STARTCHAR afii10110
ENCODING 1118
SWIDTH 411 0
DWIDTH 8 0
BBX 6 13 1 -3
BITMAP
48
30
00
84
84
84
84
84
8C
74
04
04
78
ENDCHAR
STARTCHAR afii10193
ENCODING 1119
SWIDTH 411 0
DWIDTH 8 0
BBX 6 9 1 -2
BITMAP
84
84
84
84
84
84
FC
30
30
ENDCHAR
STARTCHAR afii10050
ENCODING 1168
SWIDTH 411 0
DWIDTH 8 0
BBX 6 11 1 0
BITMAP
04
04
FC
80
80
80
80
80
80
80
80
ENDCHAR
STARTCHAR afii10098
ENCODING 1169
SWIDTH 411 0
DWIDTH 8 0
BBX 6 9 1 0
BITMAP
40
40
78
04
04
78
80
80
78
ENDCHAR
STARTCHAR uni0492
ENCODING 1170
SWIDTH 411 0
DWIDTH 8 0
BBX 7 9 0 0
BITMAP
7E
40
40
40
F8
40
40
40
40
ENDCHAR
STARTCHAR uni0493
ENCODING 1171
SWIDTH 411 0
DWIDTH 8 0
BBX 7 7 0 0
BITMAP
7E
40
40
F8
40
40
40
ENDCHAR
STARTCHAR uni0494
ENCODING 1172
SWIDTH 411 0
DWIDTH 8 0
BBX 6 11 1 -2
BITMAP
FC
80
80
80
F8
84
84
84
84
04
08
ENDCHAR
STARTCHAR uni0495
ENCODING 1173
SWIDTH 411 0
DWIDTH 8 0
BBX 6 9 1 -2
BITMAP
FC
80
80
F0
88
88
88
08
10
ENDCHAR
STARTCHAR uni0496
ENCODING 1174
SWIDTH 411 0
DWIDTH 8 0
BBX 8 11 0 -2
BITMAP
92
92
92
54
38
54
92
92
93
01
01
ENDCHAR
STARTCHAR uni0497
ENCODING 1175
SWIDTH 411 0
DWIDTH 8 0
BBX 8 9 0 -2
BITMAP
92
92
54
38
54
92
93
01
01
ENDCHAR
STARTCHAR uni0498
ENCODING 1176
SWIDTH 411 0
DWIDTH 8 0
BBX 6 11 1 -2
BITMAP
78
84
84
04
38
04
84
84
78
20
20
ENDCHAR
STARTCHAR uni0499
ENCODING 1177
SWIDTH 411 0
DWIDTH 8 0
BBX 6 9 1 -2
BITMAP
78
84
04
38
04
84
78
20
20
ENDCHAR
STARTCHAR uni049A
ENCODING 1178
SWIDTH 411 0
DWIDTH 8 0
BBX 7 11 1 -2
BITMAP
84
88
90
A0
C0
A0
90
88
86
02
02
ENDCHAR
STARTCHAR uni049B
ENCODING 1179
SWIDTH 411 0
DWIDTH 8 0
BBX 7 9 1 -2
BITMAP
84
88
90
E0
90
88
86
02
02
ENDCHAR
STARTCHAR uni049C
ENCODING 1180
SWIDTH 411 0
DWIDTH 8 0
BBX 6 9 1 0
BITMAP
84
A8
B0
A0
E0
A0
B0
A8
84
ENDCHAR
STARTCHAR uni049D
ENCODING 1181
SWIDTH 411 0
DWIDTH 8 0
BBX 6 7 1 0
BITMAP
84
A8
B0
E0
B0
A8
84
ENDCHAR
STARTCHAR uni04A0
ENCODING 1184
SWIDTH 411 0
DWIDTH 8 0
BBX 7 9 0 0
BITMAP
C2
44
48
50
60
50
48
44
42
ENDCHAR
STARTCHAR uni04A1
ENCODING 1185
SWIDTH 411 0
DWIDTH 8 0
BBX 7 7 0 0
BITMAP
C2
44
48
70
48
44
42
ENDCHAR
STARTCHAR uni04A2
ENCODING 1186
SWIDTH 411 0
DWIDTH 8 0
BBX 7 11 1 -2
BITMAP
84
84
84
84
FC
84
84
84
86
02
02
ENDCHAR
STARTCHAR uni04A3
ENCODING 1187
SWIDTH 411 0
DWIDTH 8 0
BBX 7 9 1 -2
BITMAP
84
84
84
FC
84
84
86
02
02
ENDCHAR
STARTCHAR uni04A4
ENCODING 1188
SWIDTH 411 0
DWIDTH 8 0
BBX 7 9 1 0
BITMAP
8E
88
88
88
F8
88
88
88
88
ENDCHAR
STARTCHAR uni04A5
ENCODING 1189
SWIDTH 411 0
DWIDTH 8 0
BBX 7 7 1 0
BITMAP
8E
88
88
F8
88
88
88
ENDCHAR
STARTCHAR uni04AA
ENCODING 1194
SWIDTH 411 0
DWIDTH 8 0
BBX 6 11 1 -2
BITMAP
78
84
80
80
80
80
80
84
78
20
20
ENDCHAR
STARTCHAR uni04AB
ENCODING 1195
SWIDTH 411 0
DWIDTH 8 0
BBX 6 9 1 -2
BITMAP
78
84
80
80
80
84
78
20
20
ENDCHAR
STARTCHAR uni04AE
ENCODING 1198
SWIDTH 411 0
DWIDTH 8 0
BBX 7 9 0 0
BITMAP
82
82
44
44
28
10
10
10
10
ENDCHAR
STARTCHAR uni04AF
ENCODING 1199
SWIDTH 411 0
DWIDTH 8 0
BBX 7 9 0 -2
BITMAP
82
82
44
44
28
28
10
10
10
ENDCHAR
STARTCHAR uni04B0
ENCODING 1200
SWIDTH 411 0
DWIDTH 8 0
BBX 7 9 0 0
BITMAP
82
82
44
44
28
10
7C
10
10
ENDCHAR
STARTCHAR uni04B1
ENCODING 1201
SWIDTH 411 0
DWIDTH 8 0
BBX 7 9 0 -2
BITMAP
82
82
44
44
28
28
10
7C
10
ENDCHAR
STARTCHAR uni04B2
ENCODING 1202
SWIDTH 411 0
DWIDTH 8 0
BBX 7 11 1 -2
BITMAP
84
84
48
48
30
48
48
84
86
02
02
ENDCHAR
STARTCHAR uni04B3
ENCODING 1203
SWIDTH 411 0
DWIDTH 8 0
BBX 7 9 1 -2
BITMAP
84
84
48
30
48
84
86
02
02
ENDCHAR
STARTCHAR uni04B6
ENCODING 1206
SWIDTH 411 0
DWIDTH 8 0
BBX 7 11 1 -2
BITMAP
84
84
84
84
7C
04
04
04
06
02
02
ENDCHAR
STARTCHAR uni04B7
ENCODING 1207
SWIDTH 411 0
DWIDTH 8 0
BBX 7 9 1 -2
BITMAP
84
84
84
7C
04
04
06
02
02
ENDCHAR
STARTCHAR uni04B8
ENCODING 1208
SWIDTH 411 0
DWIDTH 8 0
BBX 6 9 1 0
BITMAP
84
84
A4
A4
7C
24
24
04
04
ENDCHAR
STARTCHAR uni04B9
ENCODING 1209
SWIDTH 411 0
DWIDTH 8 0
BBX 6 7 1 0
BITMAP
84
84
A4
7C
24
04
04
ENDCHAR
STARTCHAR uni04BA
ENCODING 1210
SWIDTH 411 0
DWIDTH 8 0
BBX 6 10 1 0
BITMAP
80
80
80
80
B8
C4
84
84
84
84
ENDCHAR
STARTCHAR uni04BB
ENCODING 1211
SWIDTH 411 0
DWIDTH 8 0
BBX 6 7 1 0
BITMAP
80
80
F8
84
84
84
84
ENDCHAR
STARTCHAR uni04D0
ENCODING 1232
SWIDTH 411 0
DWIDTH 8 0
BBX 6 11 1 0
BITMAP
48
30
00
78
84
84
84
FC
84
84
84
ENDCHAR
STARTCHAR uni04D1
ENCODING 1233
SWIDTH 411 0
DWIDTH 8 0
BBX 6 10 1 0
BITMAP
48
30
00
78
04
7C
84
84
8C
74
ENDCHAR
STARTCHAR uni04D2
ENCODING 1234
SWIDTH 411 0
DWIDTH 8 0
BBX 6 11 1 0
BITMAP
48
48
00
78
84
84
84
FC
84
84
84
ENDCHAR
STARTCHAR uni04D3
ENCODING 1235
SWIDTH 411 0
DWIDTH 8 0
BBX 6 10 1 0
BITMAP
48
48
00
78
04
7C
84
84
8C
74
ENDCHAR
STARTCHAR uni04D4
ENCODING 1236
SWIDTH 411 0
DWIDTH 8 0
BBX 7 9 0 0
BITMAP
7E
90
90
90
FC
90
90
90
9E
ENDCHAR
STARTCHAR uni04D5
ENCODING 1237
SWIDTH 411 0
DWIDTH 8 0
BBX 7 7 0 0
BITMAP
6C
12
72
9E
90
90
6C
ENDCHAR
STARTCHAR uni04D6
ENCODING 1238
SWIDTH 411 0
DWIDTH 8 0
BBX 6 11 1 0
BITMAP
48
30
00
FC
80
80
F0
80
80
80
FC
ENDCHAR
STARTCHAR uni04D7
ENCODING 1239
SWIDTH 411 0
DWIDTH 8 0
BBX 6 10 1 0
BITMAP
48
30
00
78
84
84
FC
80
80
78
ENDCHAR
STARTCHAR uni04D8
ENCODING 1240
SWIDTH 411 0
DWIDTH 8 0
BBX 6 9 1 0
BITMAP
78
84
04
04
FC
84
84
84
78
ENDCHAR
STARTCHAR afii10846
ENCODING 1241
SWIDTH 411 0
DWIDTH 8 0
BBX 6 7 1 0
BITMAP
78
04
04
FC
84
84
78
ENDCHAR
STARTCHAR uni04DA
ENCODING 1242
SWIDTH 411 0
DWIDTH 8 0
BBX 6 11 1 0
BITMAP
48
48
00
78
84
04
04
FC
84
84
78
ENDCHAR
STARTCHAR uni04DB
ENCODING 1243
SWIDTH 411 0
DWIDTH 8 0
BBX 6 10 1 0
BITMAP
48
48
00
78
04
04
FC
84
84
78
ENDCHAR
STARTCHAR uni04DC
ENCODING 1244
SWIDTH 411 0
DWIDTH 8 0
BBX 7 11 0 0
BITMAP
44
44
00
82
92
54
38
54
92
92
82
ENDCHAR
STARTCHAR uni04DD
ENCODING 1245
SWIDTH 411 0
DWIDTH 8 0
BBX 7 10 0 0
BITMAP
44
44
00
92
92
54
38
54
92
92
ENDCHAR
STARTCHAR uni04DE
ENCODING 1246
SWIDTH 411 0
DWIDTH 8 0
BBX 6 11 1 0
BITMAP
48
48
00
78
84
84
04
38
04
84
78
ENDCHAR
STARTCHAR uni04DF
ENCODING 1247
SWIDTH 411 0
DWIDTH 8 0
BBX 6 10 1 0
BITMAP
48
48
00
78
84
04
38
04
84
78
ENDCHAR
STARTCHAR uni04E2
ENCODING 1250
SWIDTH 411 0
DWIDTH 8 0
BBX 6 11 1 0
BITMAP
78
00
84
8C
8C
94
94
A4
A4
C4
C4
ENDCHAR
STARTCHAR uni04E3
ENCODING 1251
SWIDTH 411 0
DWIDTH 8 0
BBX 6 9 1 0
BITMAP
78
00
84
84
84
84
84
8C
74
ENDCHAR
STARTCHAR uni04E4
ENCODING 1252
SWIDTH 411 0
DWIDTH 8 0
BBX 6 11 1 0
BITMAP
48
48
00
8C
8C
94
94
A4
A4
C4
C4
ENDCHAR
STARTCHAR uni04E5
ENCODING 1253
SWIDTH 411 0
DWIDTH 8 0
BBX 6 10 1 0
BITMAP
48
48
00
84
84
84
84
84
8C
74
ENDCHAR
STARTCHAR uni04E6
ENCODING 1254
SWIDTH 411 0
DWIDTH 8 0
BBX 6 11 1 0
BITMAP
48
48
00
78
84
84
84
84
84
84
78
ENDCHAR
STARTCHAR uni04E7
ENCODING 1255
SWIDTH 411 0
DWIDTH 8 0
BBX 6 10 1 0
BITMAP
48
48
00
78
84
84
84
84
84
78
ENDCHAR
STARTCHAR uni04E8
ENCODING 1256
SWIDTH 411 0
DWIDTH 8 0
BBX 6 9 1 0
BITMAP
78
84
84
84
FC
84
84
84
78
ENDCHAR
STARTCHAR uni04E9
ENCODING 1257
SWIDTH 411 0
DWIDTH 8 0
BBX 6 7 1 0
BITMAP
78
84
84
FC
84
84
78
ENDCHAR
STARTCHAR uni04EA
ENCODING 1258
SWIDTH 411 0
DWIDTH 8 0
BBX 6 11 1 0
BITMAP
48
48
00
78
84
84
84
FC
84
84
78
ENDCHAR
STARTCHAR uni04EB
ENCODING 1259
SWIDTH 411 0
DWIDTH 8 0
BBX 6 10 1 0
BITMAP
48
48
00
78
84
84
FC
84
84
78
ENDCHAR
STARTCHAR uni04EC
ENCODING 1260
SWIDTH 411 0
DWIDTH 8 0
BBX 6 11 1 0
BITMAP
48
48
00
78
84
04
04
3C
04
84
78
ENDCHAR
STARTCHAR uni04ED
ENCODING 1261
SWIDTH 411 0
DWIDTH 8 0
BBX 6 10 1 0
BITMAP
48
48
00
78
84
04
3C
04
84
78
ENDCHAR
STARTCHAR uni04EE
ENCODING 1262
SWIDTH 411 0
DWIDTH 8 0
BBX 6 11 1 0
BITMAP
78
00
84
84
84
84
7C
04
04
04
78
ENDCHAR
STARTCHAR uni04EF
ENCODING 1263
SWIDTH 411 0
DWIDTH 8 0
BBX 6 12 1 -3
BITMAP
78
00
84
84
84
84
84
8C
74
04
04
78
ENDCHAR
STARTCHAR uni04F0
ENCODING 1264
SWIDTH 411 0
DWIDTH 8 0
BBX 6 11 1 0
BITMAP
48
48
00
84
84
84
7C
04
04
04
78
ENDCHAR
STARTCHAR uni04F1
ENCODING 1265
SWIDTH 411 0
DWIDTH 8 0
BBX 6 13 1 -3
BITMAP
48
48
00
84
84
84
84
84
8C
74
04
04
78
ENDCHAR
STARTCHAR uni04F2
ENCODING 1266
SWIDTH 411 0
DWIDTH 8 0
BBX 6 11 1 0
BITMAP
24
48
00
84
84
84
7C
04
04
04
78
ENDCHAR
STARTCHAR uni04F3
ENCODING 1267
SWIDTH 411 0
DWIDTH 8 0
BBX 6 13 1 -3
BITMAP
24
48
00
84
84
84
84
84
8C
74
04
04
78
ENDCHAR
STARTCHAR uni04F4
ENCODING 1268
SWIDTH 411 0
DWIDTH 8 0
BBX 6 11 1 0
BITMAP
48
48
00
84
84
84
84
7C
04
04
04
ENDCHAR
STARTCHAR uni04F5
ENCODING 1269
SWIDTH 411 0
DWIDTH 8 0
BBX 6 10 1 0
BITMAP
48
48
00
84
84
84
7C
04
04
04
ENDCHAR
STARTCHAR uni04F8
ENCODING 1272
SWIDTH 411 0
DWIDTH 8 0
BBX 7 11 0 0
BITMAP
48
48
00
82
82
82
F2
8A
8A
8A
F2
ENDCHAR
STARTCHAR uni04F9
ENCODING 1273
SWIDTH 411 0
DWIDTH 8 0
BBX 7 10 0 0
BITMAP
48
48
00
82
82
F2
8A
8A
8A
F2
ENDCHAR
STARTCHAR Klinebelow
ENCODING 7732
SWIDTH 411 0
DWIDTH 8 0
BBX 6 11 1 -2
BITMAP
84
88
90
A0
C0
A0
90
88
84
00
78
ENDCHAR
STARTCHAR klinebelow
ENCODING 7733
SWIDTH 411 0
DWIDTH 8 0
BBX 6 12 1 -2
BITMAP
80
80
80
80
88
90
E0
90
88
84
00
78
ENDCHAR
STARTCHAR Edotbelow
ENCODING 7864
SWIDTH 411 0
DWIDTH 8 0
BBX 6 11 1 -2
BITMAP
FC
80
80
80
F0
80
80
80
FC
20
20
ENDCHAR
STARTCHAR edotbelow
ENCODING 7865
SWIDTH 411 0
DWIDTH 8 0
BBX 6 9 1 -2
BITMAP
78
84
84
FC
80
80
78
20
20
ENDCHAR
STARTCHAR Etilde
ENCODING 7868
SWIDTH 411 0
DWIDTH 8 0
BBX 6 11 1 0
BITMAP
64
98
00
FC
80
80
80
F0
80
80
FC
ENDCHAR
STARTCHAR etilde
ENCODING 7869
SWIDTH 411 0
DWIDTH 8 0
BBX 6 10 1 0
BITMAP
64
98
00
78
84
84
FC
80
80
78
ENDCHAR
STARTCHAR Odotbelow
ENCODING 7884
SWIDTH 411 0
DWIDTH 8 0
BBX 6 11 1 -2
BITMAP
78
84
84
84
84
84
84
84
78
20
20
ENDCHAR
STARTCHAR odotbelow
ENCODING 7885
SWIDTH 411 0
DWIDTH 8 0
BBX 6 9 1 -2
BITMAP
78
84
84
84
84
84
78
20
20
ENDCHAR
STARTCHAR Ytilde
ENCODING 7928
SWIDTH 411 0
DWIDTH 8 0
BBX 7 11 0 0
BITMAP
64
98
00
82
82
44
44
28
10
10
10
ENDCHAR
STARTCHAR ytilde
ENCODING 7929
SWIDTH 411 0
DWIDTH 8 0
BBX 6 13 1 -3
BITMAP
64
98
00
84
84
84
84
84
8C
74
04
04
78
ENDCHAR
STARTCHAR uni2000
ENCODING 8192
SWIDTH 411 0
DWIDTH 8 0
BBX 1 1 7 -3
BITMAP
00
ENDCHAR
STARTCHAR uni2001
ENCODING 8193
SWIDTH 411 0
DWIDTH 8 0
BBX 1 1 7 -3
BITMAP
00
ENDCHAR
STARTCHAR enspace
ENCODING 8194
SWIDTH 411 0
DWIDTH 8 0
BBX 1 1 7 -3
BITMAP
00
ENDCHAR
STARTCHAR uni2003
ENCODING 8195
SWIDTH 411 0
DWIDTH 8 0
BBX 1 1 7 -3
BITMAP
00
ENDCHAR
STARTCHAR uni2004
ENCODING 8196
SWIDTH 411 0
DWIDTH 8 0
BBX 1 1 7 -3
BITMAP
00
ENDCHAR
STARTCHAR uni2005
ENCODING 8197
SWIDTH 411 0
DWIDTH 8 0
BBX 1 1 7 -3
BITMAP
00
ENDCHAR
STARTCHAR uni2006
ENCODING 8198
SWIDTH 411 0
DWIDTH 8 0
BBX 1 1 7 -3
BITMAP
00
ENDCHAR
STARTCHAR uni2007
ENCODING 8199
SWIDTH 411 0
DWIDTH 8 0
BBX 1 1 7 -3
BITMAP
00
ENDCHAR
STARTCHAR uni2008
ENCODING 8200
SWIDTH 411 0
DWIDTH 8 0
BBX 1 1 7 -3
BITMAP
00
ENDCHAR
STARTCHAR uni2009
ENCODING 8201
SWIDTH 411 0
DWIDTH 8 0
BBX 1 1 7 -3
BITMAP
00
ENDCHAR
STARTCHAR uni200A
ENCODING 8202
SWIDTH 411 0
DWIDTH 8 0
BBX 1 1 7 -3
BITMAP
00
ENDCHAR
STARTCHAR hyphentwo
ENCODING 8208
SWIDTH 411 0
DWIDTH 8 0
BBX 4 1 2 3
BITMAP
F0
ENDCHAR
STARTCHAR uni2011
ENCODING 8209
SWIDTH 411 0
DWIDTH 8 0
BBX 4 1 2 3
BITMAP
F0
ENDCHAR
STARTCHAR figuredash
ENCODING 8210
SWIDTH 411 0
DWIDTH 8 0
BBX 6 1 1 3
BITMAP
FC
ENDCHAR
STARTCHAR endash
ENCODING 8211
SWIDTH 411 0
DWIDTH 8 0
BBX 6 1 1 3
BITMAP
FC
ENDCHAR
STARTCHAR emdash
ENCODING 8212
SWIDTH 411 0
DWIDTH 8 0
BBX 7 1 0 3
BITMAP
FE
ENDCHAR
STARTCHAR afii00208
ENCODING 8213
SWIDTH 411 0
DWIDTH 8 0
BBX 7 1 0 3
BITMAP
FE
ENDCHAR
STARTCHAR dblverticalbar
ENCODING 8214
SWIDTH 411 0
DWIDTH 8 0
BBX 3 10 2 -1
BITMAP
A0
A0
A0
A0
A0
A0
A0
A0
A0
A0
ENDCHAR
STARTCHAR underscoredbl
ENCODING 8215
SWIDTH 411 0
DWIDTH 8 0
BBX 8 3 0 -3
BITMAP
FF
00
FF
ENDCHAR
STARTCHAR quoteleft
ENCODING 8216
SWIDTH 411 0
DWIDTH 8 0
BBX 2 3 3 7
BITMAP
40
80
80
ENDCHAR
STARTCHAR quoteright
ENCODING 8217
SWIDTH 411 0
DWIDTH 8 0
BBX 2 3 3 7
BITMAP
40
40
80
ENDCHAR
STARTCHAR quotesinglbase
ENCODING 8218
SWIDTH 411 0
DWIDTH 8 0
BBX 2 3 3 -2
BITMAP
40
40
80
ENDCHAR
STARTCHAR quotedblleft
ENCODING 8220
SWIDTH 411 0
DWIDTH 8 0
BBX 5 3 2 7
BITMAP
48
90
90
ENDCHAR
STARTCHAR quotedblright
ENCODING 8221
SWIDTH 411 0
DWIDTH 8 0
BBX 5 3 2 7
BITMAP
48
48
90
ENDCHAR
STARTCHAR quotedblbase
ENCODING 8222
SWIDTH 411 0
DWIDTH 8 0
BBX 5 3 1 -2
BITMAP
48
48
90
ENDCHAR
STARTCHAR dagger
ENCODING 8224
SWIDTH 411 0
DWIDTH 8 0
BBX 5 10 1 -1
BITMAP
20
20
F8
20
20
20
20
20
20
20
ENDCHAR
STARTCHAR daggerdbl
ENCODING 8225
SWIDTH 411 0
DWIDTH 8 0
BBX 5 10 1 -1
BITMAP
20
20
F8
20
20
20
20
F8
20
20
ENDCHAR
STARTCHAR bullet
ENCODING 8226
SWIDTH 411 0
DWIDTH 8 0
BBX 4 4 2 2
BITMAP
60
F0
F0
60
ENDCHAR
STARTCHAR ellipsis
ENCODING 8230
SWIDTH 411 0
DWIDTH 8 0
BBX 7 2 0 0
BITMAP
92
92
ENDCHAR
STARTCHAR perthousand
ENCODING 8240
SWIDTH 411 0
DWIDTH 8 0
BBX 7 10 0 -1
BITMAP
48
A8
50
10
20
20
40
54
AA
94
ENDCHAR
STARTCHAR minute
ENCODING 8242
SWIDTH 411 0
DWIDTH 8 0
BBX 1 4 3 6
BITMAP
80
80
80
80
ENDCHAR
STARTCHAR second
ENCODING 8243
SWIDTH 411 0
DWIDTH 8 0
BBX 4 4 2 6
BITMAP
90
90
90
90
ENDCHAR
STARTCHAR guilsinglleft
ENCODING 8249
SWIDTH 411 0
DWIDTH 8 0
BBX 4 7 2 0
BITMAP
10
20
40
80
40
20
10
ENDCHAR
STARTCHAR guilsinglright
ENCODING 8250
SWIDTH 411 0
DWIDTH 8 0
BBX 4 7 2 0
BITMAP
80
40
20
10
20
40
80
ENDCHAR
STARTCHAR exclamdbl
ENCODING 8252
SWIDTH 411 0
DWIDTH 8 0
BBX 4 10 2 0
BITMAP
90
90
90
90
90
90
90
00
90
90
ENDCHAR
STARTCHAR overline
ENCODING 8254
SWIDTH 411 0
DWIDTH 8 0
BBX 6 1 1 10
BITMAP
FC
ENDCHAR
STARTCHAR nsuperior
ENCODING 8319
SWIDTH 411 0
DWIDTH 8 0
BBX 4 5 2 5
BITMAP
E0
90
90
90
90
ENDCHAR
STARTCHAR peseta
ENCODING 8359
SWIDTH 411 0
DWIDTH 8 0
BBX 7 9 0 0
BITMAP
F0
88
88
88
F4
84
8E
84
82
ENDCHAR
STARTCHAR Euro
ENCODING 8364
SWIDTH 411 0
DWIDTH 8 0
BBX 7 9 0 0
BITMAP
1C
22
40
F8
40
F8
40
22
1C
ENDCHAR
STARTCHAR uni20AE
ENCODING 8366
SWIDTH 411 0
DWIDTH 8 0
BBX 7 9 0 0
BITMAP
FE
10
10
1C
70
1C
70
10
10
ENDCHAR
STARTCHAR uni210E
ENCODING 8462
SWIDTH 411 0
DWIDTH 8 0
BBX 6 9 1 0
BITMAP
80
80
80
B8
C4
84
84
84
84
ENDCHAR
STARTCHAR uni210F
ENCODING 8463
SWIDTH 411 0
DWIDTH 8 0
BBX 7 9 0 0
BITMAP
40
F8
40
5C
62
42
42
42
42
ENDCHAR
STARTCHAR afii61352
ENCODING 8470
SWIDTH 411 0
DWIDTH 8 0
BBX 7 10 0 0
BITMAP
96
96
96
D0
F0
F0
B0
96
90
96
ENDCHAR
STARTCHAR trademark
ENCODING 8482
SWIDTH 411 0
DWIDTH 8 0
BBX 8 4 0 5
BITMAP
FB
55
55
51
ENDCHAR
STARTCHAR Ohm
ENCODING 8486
SWIDTH 411 0
DWIDTH 8 0
BBX 6 9 1 0
BITMAP
78
84
84
84
84
48
48
48
CC
ENDCHAR
STARTCHAR arrowleft
ENCODING 8592
SWIDTH 411 0
DWIDTH 8 0
BBX 7 5 0 2
BITMAP
20
40
FE
40
20
ENDCHAR
STARTCHAR arrowup
ENCODING 8593
SWIDTH 411 0
DWIDTH 8 0
BBX 5 10 1 -1
BITMAP
20
70
A8
20
20
20
20
20
20
20
ENDCHAR
STARTCHAR arrowright
ENCODING 8594
SWIDTH 411 0
DWIDTH 8 0
BBX 7 5 0 2
BITMAP
08
04
FE
04
08
ENDCHAR
STARTCHAR arrowdown
ENCODING 8595
SWIDTH 411 0
DWIDTH 8 0
BBX 5 10 1 -1
BITMAP
20
20
20
20
20
20
20
A8
70
20
ENDCHAR
STARTCHAR arrowboth
ENCODING 8596
SWIDTH 411 0
DWIDTH 8 0
BBX 8 5 0 2
BITMAP
24
42
FF
42
24
ENDCHAR
STARTCHAR arrowupdn
ENCODING 8597
SWIDTH 411 0
DWIDTH 8 0
BBX 5 10 1 -1
BITMAP
20
70
A8
20
20
20
20
A8
70
20
ENDCHAR
STARTCHAR arrowupdnbse
ENCODING 8616
SWIDTH 411 0
DWIDTH 8 0
BBX 5 10 1 -1
BITMAP
20
70
A8
20
20
20
A8
70
20
F8
ENDCHAR
STARTCHAR carriagereturn
ENCODING 8629
SWIDTH 411 0
DWIDTH 8 0
BBX 7 10 0 -1
BITMAP
02
02
02
02
02
22
42
FE
40
20
ENDCHAR
STARTCHAR arrowdblleft
ENCODING 8656
SWIDTH 411 0
DWIDTH 8 0
BBX 7 5 0 2
BITMAP
20
7E
C0
7E
20
ENDCHAR
STARTCHAR arrowdblup
ENCODING 8657
SWIDTH 411 0
DWIDTH 8 0
BBX 5 10 1 -1
BITMAP
20
70
D8
50
50
50
50
50
50
50
ENDCHAR
STARTCHAR arrowdblright
ENCODING 8658
SWIDTH 411 0
DWIDTH 8 0
BBX 7 5 0 2
BITMAP
08
FC
06
FC
08
ENDCHAR
STARTCHAR arrowdbldown
ENCODING 8659
SWIDTH 411 0
DWIDTH 8 0
BBX 5 10 1 -1
BITMAP
50
50
50
50
50
50
50
D8
70
20
ENDCHAR
STARTCHAR arrowdblboth
ENCODING 8660
SWIDTH 411 0
DWIDTH 8 0
BBX 8 5 0 2
BITMAP
24
7E
C3
7E
24
ENDCHAR
STARTCHAR uni21D5
ENCODING 8661
SWIDTH 411 0
DWIDTH 8 0
BBX 5 10 1 -1
BITMAP
20
70
D8
50
50
50
50
D8
70
20
ENDCHAR
STARTCHAR existential
ENCODING 8707
SWIDTH 411 0
DWIDTH 8 0
BBX 6 9 1 0
BITMAP
FC
04
04
04
FC
04
04
04
FC
ENDCHAR
STARTCHAR emptyset
ENCODING 8709
SWIDTH 411 0
DWIDTH 8 0
BBX 7 10 0 0
BITMAP
02
04
7C
8A
92
92
A2
7C
40
80
ENDCHAR
STARTCHAR increment
ENCODING 8710
SWIDTH 411 0
DWIDTH 8 0
BBX 7 10 0 0
BITMAP
10
10
28
28
44
44
44
82
82
FE
ENDCHAR
STARTCHAR element
ENCODING 8712
SWIDTH 411 0
DWIDTH 8 0
BBX 6 9 1 0
BITMAP
3C
40
80
80
FC
80
80
40
3C
ENDCHAR
STARTCHAR uni220A
ENCODING 8714
SWIDTH 411 0
DWIDTH 8 0
BBX 6 7 1 1
BITMAP
3C
40
80
FC
80
40
3C
ENDCHAR
STARTCHAR minus
ENCODING 8722
SWIDTH 411 0
DWIDTH 8 0
BBX 6 1 1 3
BITMAP
FC
ENDCHAR
STARTCHAR bulletoperator
ENCODING 8729
SWIDTH 411 0
DWIDTH 8 0
BBX 2 2 3 3
BITMAP
C0
C0
ENDCHAR
STARTCHAR radical
ENCODING 8730
SWIDTH 411 0
DWIDTH 8 0
BBX 7 11 1 -1
BITMAP
0E
08
08
08
08
88
88
88
48
28
18
ENDCHAR
STARTCHAR infinity
ENCODING 8734
SWIDTH 411 0
DWIDTH 8 0
BBX 7 5 0 1
BITMAP
6C
92
92
92
6C
ENDCHAR
STARTCHAR orthogonal
ENCODING 8735
SWIDTH 411 0
DWIDTH 8 0
BBX 6 6 1 1
BITMAP
80
80
80
80
80
FC
ENDCHAR
STARTCHAR logicaland
ENCODING 8743
SWIDTH 411 0
DWIDTH 8 0
BBX 7 8 0 0
BITMAP
10
10
28
28
44
44
82
82
ENDCHAR
STARTCHAR logicalor
ENCODING 8744
SWIDTH 411 0
DWIDTH 8 0
BBX 7 8 0 0
BITMAP
82
82
44
44
28
28
10
10
ENDCHAR
STARTCHAR intersection
ENCODING 8745
SWIDTH 411 0
DWIDTH 8 0
BBX 6 8 1 0
BITMAP
78
84
84
84
84
84
84
84
ENDCHAR
STARTCHAR union
ENCODING 8746
SWIDTH 411 0
DWIDTH 8 0
BBX 6 8 1 0
BITMAP
84
84
84
84
84
84
84
78
ENDCHAR
STARTCHAR approxequal
ENCODING 8776
SWIDTH 411 0
DWIDTH 8 0
BBX 6 5 1 1
BITMAP
64
98
00
64
98
ENDCHAR
STARTCHAR notequal
ENCODING 8800
SWIDTH 411 0
DWIDTH 8 0
BBX 6 6 1 1
BITMAP
04
FC
10
20
FC
80
ENDCHAR
STARTCHAR equivalence
ENCODING 8801
SWIDTH 411 0
DWIDTH 8 0
BBX 6 7 1 0
BITMAP
FC
00
00
FC
00
00
FC
ENDCHAR
STARTCHAR lessequal
ENCODING 8804
SWIDTH 411 0
DWIDTH 8 0
BBX 5 9 2 0
BITMAP
10
20
40
80
40
20
10
00
F8
ENDCHAR
STARTCHAR greaterequal
ENCODING 8805
SWIDTH 411 0
DWIDTH 8 0
BBX 5 9 1 0
BITMAP
40
20
10
08
10
20
40
00
F8
ENDCHAR
STARTCHAR house
ENCODING 8962
SWIDTH 411 0
DWIDTH 8 0
BBX 7 7 0 1
BITMAP
10
28
44
82
82
82
FE
ENDCHAR
STARTCHAR revlogicalnot
ENCODING 8976
SWIDTH 411 0
DWIDTH 8 0
BBX 6 4 1 2
BITMAP
FC
80
80
80
ENDCHAR
STARTCHAR integraltp
ENCODING 8992
SWIDTH 411 0
DWIDTH 8 0
BBX 4 12 3 -3
BITMAP
60
90
90
80
80
80
80
80
80
80
80
80
ENDCHAR
STARTCHAR integralbt
ENCODING 8993
SWIDTH 411 0
DWIDTH 8 0
BBX 4 12 0 -1
BITMAP
10
10
10
10
10
10
10
10
10
90
90
60
ENDCHAR
STARTCHAR uni23BA
ENCODING 9146
SWIDTH 411 0
DWIDTH 8 0
BBX 8 1 0 10
BITMAP
FF
ENDCHAR
STARTCHAR uni23BB
ENCODING 9147
SWIDTH 411 0
DWIDTH 8 0
BBX 8 1 0 7
BITMAP
FF
ENDCHAR
STARTCHAR uni23BC
ENCODING 9148
SWIDTH 411 0
DWIDTH 8 0
BBX 8 1 0 0
BITMAP
FF
ENDCHAR
STARTCHAR uni23BD
ENCODING 9149
SWIDTH 411 0
DWIDTH 8 0
BBX 8 1 0 -3
BITMAP
FF
ENDCHAR
STARTCHAR uni2409
ENCODING 9225
SWIDTH 411 0
DWIDTH 8 0
BBX 8 11 0 -1
BITMAP
88
88
F8
88
88
00
1F
04
04
04
04
ENDCHAR
STARTCHAR uni240A
ENCODING 9226
SWIDTH 411 0
DWIDTH 8 0
BBX 8 11 0 -1
BITMAP
80
80
80
80
F8
00
1F
10
1C
10
10
ENDCHAR
STARTCHAR uni240B
ENCODING 9227
SWIDTH 411 0
DWIDTH 8 0
BBX 8 11 0 -1
BITMAP
88
88
50
50
20
00
1F
04
04
04
04
ENDCHAR
STARTCHAR uni240C
ENCODING 9228
SWIDTH 411 0
DWIDTH 8 0
BBX 8 11 0 -1
BITMAP
F8
80
E0
80
80
00
1F
10
1C
10
10
ENDCHAR
STARTCHAR uni240D
ENCODING 9229
SWIDTH 411 0
DWIDTH 8 0
BBX 8 11 0 -1
BITMAP
70
88
80
88
70
00
1E
11
1E
12
11
ENDCHAR
STARTCHAR uni2424
ENCODING 9252
SWIDTH 411 0
DWIDTH 8 0
BBX 8 11 0 -1
BITMAP
88
C8
A8
98
88
00
10
10
10
10
1F
ENDCHAR
STARTCHAR SF100000
ENCODING 9472
SWIDTH 411 0
DWIDTH 8 0
BBX 8 1 0 4
BITMAP
FF
ENDCHAR
STARTCHAR uni2501
ENCODING 9473
SWIDTH 411 0
DWIDTH 8 0
BBX 8 2 0 3
BITMAP
FF
FF
ENDCHAR
STARTCHAR SF110000
ENCODING 9474
SWIDTH 411 0
DWIDTH 8 0
BBX 1 14 3 -3
BITMAP
80
80
80
80
80
80
80
80
80
80
80
80
80
80
ENDCHAR
STARTCHAR uni2503
ENCODING 9475
SWIDTH 411 0
DWIDTH 8 0
BBX 2 14 3 -3
BITMAP
C0
C0
C0
C0
C0
C0
C0
C0
C0
C0
C0
C0
C0
C0
ENDCHAR
STARTCHAR uni2508
ENCODING 9480
SWIDTH 411 0
DWIDTH 8 0
BBX 7 1 0 4
BITMAP
AA
ENDCHAR
STARTCHAR uni2509
ENCODING 9481
SWIDTH 411 0
DWIDTH 8 0
BBX 7 2 0 3
BITMAP
AA
AA
ENDCHAR
STARTCHAR uni250A
ENCODING 9482
SWIDTH 411 0
DWIDTH 8 0
BBX 1 13 3 -2
BITMAP
80
80
80
00
80
80
00
80
80
80
00
80
80
ENDCHAR
STARTCHAR uni250B
ENCODING 9483
SWIDTH 411 0
DWIDTH 8 0
BBX 2 13 3 -2
BITMAP
C0
C0
C0
00
C0
C0
00
C0
C0
C0
00
C0
C0
ENDCHAR
STARTCHAR SF010000
ENCODING 9484
SWIDTH 411 0
DWIDTH 8 0
BBX 5 8 3 -3
BITMAP
F8
80
80
80
80
80
80
80
ENDCHAR
STARTCHAR uni250D
ENCODING 9485
SWIDTH 411 0
DWIDTH 8 0
BBX 5 8 3 -3
BITMAP
F8
F8
80
80
80
80
80
80
ENDCHAR
STARTCHAR uni250E
ENCODING 9486
SWIDTH 411 0
DWIDTH 8 0
BBX 5 8 3 -3
BITMAP
F8
C0
C0
C0
C0
C0
C0
C0
ENDCHAR
STARTCHAR uni250F
ENCODING 9487
SWIDTH 411 0
DWIDTH 8 0
BBX 5 8 3 -3
BITMAP
F8
F8
C0
C0
C0
C0
C0
C0
ENDCHAR
STARTCHAR SF030000
ENCODING 9488
SWIDTH 411 0
DWIDTH 8 0
BBX 4 8 0 -3
BITMAP
F0
10
10
10
10
10
10
10
ENDCHAR
STARTCHAR uni2511
ENCODING 9489
SWIDTH 411 0
DWIDTH 8 0
BBX 4 8 0 -3
BITMAP
F0
F0
10
10
10
10
10
10
ENDCHAR
STARTCHAR uni2512
ENCODING 9490
SWIDTH 411 0
DWIDTH 8 0
BBX 5 8 0 -3
BITMAP
F8
18
18
18
18
18
18
18
ENDCHAR
STARTCHAR uni2513
ENCODING 9491
SWIDTH 411 0
DWIDTH 8 0
BBX 5 8 0 -3
BITMAP
F8
F8
18
18
18
18
18
18
ENDCHAR
STARTCHAR SF020000
ENCODING 9492
SWIDTH 411 0
DWIDTH 8 0
BBX 5 7 3 4
BITMAP
80
80
80
80
80
80
F8
ENDCHAR
STARTCHAR uni2515
ENCODING 9493
SWIDTH 411 0
DWIDTH 8 0
BBX 5 8 3 3
BITMAP
80
80
80
80
80
80
F8
F8
ENDCHAR
STARTCHAR uni2516
ENCODING 9494
SWIDTH 411 0
DWIDTH 8 0
BBX 5 7 3 4
BITMAP
C0
C0
C0
C0
C0
C0
F8
ENDCHAR
STARTCHAR uni2517
ENCODING 9495
SWIDTH 411 0
DWIDTH 8 0
BBX 5 8 3 3
BITMAP
C0
C0
C0
C0
C0
C0
F8
F8
ENDCHAR
STARTCHAR SF040000
ENCODING 9496
SWIDTH 411 0
DWIDTH 8 0
BBX 4 7 0 4
BITMAP
10
10
10
10
10
10
F0
ENDCHAR
STARTCHAR uni2519
ENCODING 9497
SWIDTH 411 0
DWIDTH 8 0
BBX 4 8 0 3
BITMAP
10
10
10
10
10
10
F0
F0
ENDCHAR
STARTCHAR uni251A
ENCODING 9498
SWIDTH 411 0
DWIDTH 8 0
BBX 5 7 0 4
BITMAP
18
18
18
18
18
18
F8
ENDCHAR
STARTCHAR uni251B
ENCODING 9499
SWIDTH 411 0
DWIDTH 8 0
BBX 5 8 0 3
BITMAP
18
18
18
18
18
18
F8
F8
ENDCHAR
STARTCHAR SF080000
ENCODING 9500
SWIDTH 411 0
DWIDTH 8 0
BBX 5 14 3 -3
BITMAP
80
80
80
80
80
80
F8
80
80
80
80
80
80
80
ENDCHAR
STARTCHAR uni251D
ENCODING 9501
SWIDTH 411 0
DWIDTH 8 0
BBX 5 14 3 -3
BITMAP
80
80
80
80
80
80
F8
F8
80
80
80
80
80
80
ENDCHAR
STARTCHAR uni251E
ENCODING 9502
SWIDTH 411 0
DWIDTH 8 0
BBX 5 14 3 -3
BITMAP
C0
C0
C0
C0
C0
C0
F8
80
80
80
80
80
80
80
ENDCHAR
STARTCHAR uni251F
ENCODING 9503
SWIDTH 411 0
DWIDTH 8 0
BBX 5 14 3 -3
BITMAP
80
80
80
80
80
80
F8
C0
C0
C0
C0
C0
C0
C0
ENDCHAR
STARTCHAR uni2520
ENCODING 9504
SWIDTH 411 0
DWIDTH 8 0
BBX 5 14 3 -3
BITMAP
C0
C0
C0
C0
C0
C0
F8
C0
C0
C0
C0
C0
C0
C0
ENDCHAR
STARTCHAR uni2521
ENCODING 9505
SWIDTH 411 0
DWIDTH 8 0
BBX 5 14 3 -3
BITMAP
C0
C0
C0
C0
C0
C0
F8
F8
80
80
80
80
80
80
ENDCHAR
STARTCHAR uni2522
ENCODING 9506
SWIDTH 411 0
DWIDTH 8 0
BBX 5 14 3 -3
BITMAP
80
80
80
80
80
80
F8
F8
C0
C0
C0
C0
C0
C0
ENDCHAR
STARTCHAR uni2523
ENCODING 9507
SWIDTH 411 0
DWIDTH 8 0
BBX 5 14 3 -3
BITMAP
C0
C0
C0
C0
C0
C0
F8
F8
C0
C0
C0
C0
C0
C0
ENDCHAR
STARTCHAR SF090000
ENCODING 9508
SWIDTH 411 0
DWIDTH 8 0
BBX 4 14 0 -3
BITMAP
10
10
10
10
10
10
F0
10
10
10
10
10
10
10
ENDCHAR
STARTCHAR uni2525
ENCODING 9509
SWIDTH 411 0
DWIDTH 8 0
BBX 4 14 0 -3
BITMAP
10
10
10
10
10
10
F0
F0
10
10
10
10
10
10
ENDCHAR
STARTCHAR uni2526
ENCODING 9510
SWIDTH 411 0
DWIDTH 8 0
BBX 5 14 0 -3
BITMAP
18
18
18
18
18
18
F8
10
10
10
10
10
10
10
ENDCHAR
STARTCHAR uni2527
ENCODING 9511
SWIDTH 411 0
DWIDTH 8 0
BBX 5 14 0 -3
BITMAP
10
10
10
10
10
10
F8
18
18
18
18
18
18
18
ENDCHAR
STARTCHAR uni2528
ENCODING 9512
SWIDTH 411 0
DWIDTH 8 0
BBX 5 14 0 -3
BITMAP
18
18
18
18
18
18
F8
18
18
18
18
18
18
18
ENDCHAR
STARTCHAR uni2529
ENCODING 9513
SWIDTH 411 0
DWIDTH 8 0
BBX 5 14 0 -3
BITMAP
18
18
18
18
18
18
F8
F8
10
10
10
10
10
10
ENDCHAR
STARTCHAR uni252A
ENCODING 9514
SWIDTH 411 0
DWIDTH 8 0
BBX 5 14 0 -3
BITMAP
10
10
10
10
10
10
F8
F8
18
18
18
18
18
18
ENDCHAR
STARTCHAR uni252B
ENCODING 9515
SWIDTH 411 0
DWIDTH 8 0
BBX 5 14 0 -3
BITMAP
18
18
18
18
18
18
F8
F8
18
18
18
18
18
18
ENDCHAR
STARTCHAR SF060000
ENCODING 9516
SWIDTH 411 0
DWIDTH 8 0
BBX 8 8 0 -3
BITMAP
FF
10
10
10
10
10
10
10
ENDCHAR
STARTCHAR uni252D
ENCODING 9517
SWIDTH 411 0
DWIDTH 8 0
BBX 8 8 0 -3
BITMAP
FF
F0
10
10
10
10
10
10
ENDCHAR
STARTCHAR uni252E
ENCODING 9518
SWIDTH 411 0
DWIDTH 8 0
BBX 8 8 0 -3
BITMAP
FF
1F
10
10
10
10
10
10
ENDCHAR
STARTCHAR uni252F
ENCODING 9519
SWIDTH 411 0
DWIDTH 8 0
BBX 8 8 0 -3
BITMAP
FF
FF
10
10
10
10
10
10
ENDCHAR
STARTCHAR uni2530
ENCODING 9520
SWIDTH 411 0
DWIDTH 8 0
BBX 8 8 0 -3
BITMAP
FF
18
18
18
18
18
18
18
ENDCHAR
STARTCHAR uni2531
ENCODING 9521
SWIDTH 411 0
DWIDTH 8 0
BBX 8 8 0 -3
BITMAP
FF
F8
18
18
18
18
18
18
ENDCHAR
STARTCHAR uni2532
ENCODING 9522
SWIDTH 411 0
DWIDTH 8 0
BBX 8 8 0 -3
BITMAP
FF
1F
18
18
18
18
18
18
ENDCHAR
STARTCHAR uni2533
ENCODING 9523
SWIDTH 411 0
DWIDTH 8 0
BBX 8 8 0 -3
BITMAP
FF
FF
18
18
18
18
18
18
ENDCHAR
STARTCHAR SF070000
ENCODING 9524
SWIDTH 411 0
DWIDTH 8 0
BBX 8 7 0 4
BITMAP
10
10
10
10
10
10
FF
ENDCHAR
STARTCHAR uni2535
ENCODING 9525
SWIDTH 411 0
DWIDTH 8 0
BBX 8 8 0 3
BITMAP
10
10
10
10
10
10
FF
F0
ENDCHAR
STARTCHAR uni2536
ENCODING 9526
SWIDTH 411 0
DWIDTH 8 0
BBX 8 8 0 3
BITMAP
10
10
10
10
10
10
FF
1F
ENDCHAR
STARTCHAR uni2537
ENCODING 9527
SWIDTH 411 0
DWIDTH 8 0
BBX 8 8 0 3
BITMAP
10
10
10
10
10
10
FF
FF
ENDCHAR
STARTCHAR uni2538
ENCODING 9528
SWIDTH 411 0
DWIDTH 8 0
BBX 8 7 0 4
BITMAP
18
18
18
18
18
18
FF
ENDCHAR
STARTCHAR uni2539
ENCODING 9529
SWIDTH 411 0
DWIDTH 8 0
BBX 8 8 0 3
BITMAP
18
18
18
18
18
18
FF
F8
ENDCHAR
STARTCHAR uni253A
ENCODING 9530
SWIDTH 411 0
DWIDTH 8 0
BBX 8 8 0 3
BITMAP
18
18
18
18
18
18
FF
1F
ENDCHAR
STARTCHAR uni253B
ENCODING 9531
SWIDTH 411 0
DWIDTH 8 0
BBX 8 8 0 3
BITMAP
18
18
18
18
18
18
FF
FF
ENDCHAR
STARTCHAR SF050000
ENCODING 9532
SWIDTH 411 0
DWIDTH 8 0
BBX 8 14 0 -3
BITMAP
10
10
10
10
10
10
FF
10
10
10
10
10
10
10
ENDCHAR
STARTCHAR uni253D
ENCODING 9533
SWIDTH 411 0
DWIDTH 8 0
BBX 8 14 0 -3
BITMAP
10
10
10
10
10
10
FF
F0
10
10
10
10
10
10
ENDCHAR
STARTCHAR uni253E
ENCODING 9534
SWIDTH 411 0
DWIDTH 8 0
BBX 8 14 0 -3
BITMAP
10
10
10
10
10
10
FF
1F
10
10
10
10
10
10
ENDCHAR
STARTCHAR uni253F
ENCODING 9535
SWIDTH 411 0
DWIDTH 8 0
BBX 8 14 0 -3
BITMAP
10
10
10
10
10
10
FF
FF
10
10
10
10
10
10
ENDCHAR
STARTCHAR uni2540
ENCODING 9536
SWIDTH 411 0
DWIDTH 8 0
BBX 8 14 0 -3
BITMAP
18
18
18
18
18
18
FF
10
10
10
10
10
10
10
ENDCHAR
STARTCHAR uni2541
ENCODING 9537
SWIDTH 411 0
DWIDTH 8 0
BBX 8 14 0 -3
BITMAP
10
10
10
10
10
10
FF
18
18
18
18
18
18
18
ENDCHAR
STARTCHAR uni2542
ENCODING 9538
SWIDTH 411 0
DWIDTH 8 0
BBX 8 14 0 -3
BITMAP
18
18
18
18
18
18
FF
18
18
18
18
18
18
18
ENDCHAR
STARTCHAR uni2543
ENCODING 9539
SWIDTH 411 0
DWIDTH 8 0
BBX 8 14 0 -3
BITMAP
18
18
18
18
18
18
FF
F0
10
10
10
10
10
10
ENDCHAR
STARTCHAR uni2544
ENCODING 9540
SWIDTH 411 0
DWIDTH 8 0
BBX 8 14 0 -3
BITMAP
18
18
18
18
18
18
FF
1F
10
10
10
10
10
10
ENDCHAR
STARTCHAR uni2545
ENCODING 9541
SWIDTH 411 0
DWIDTH 8 0
BBX 8 14 0 -3
BITMAP
10
10
10
10
10
10
FF
F8
18
18
18
18
18
18
ENDCHAR
STARTCHAR uni2546
ENCODING 9542
SWIDTH 411 0
DWIDTH 8 0
BBX 8 14 0 -3
BITMAP
10
10
10
10
10
10
FF
1F
18
18
18
18
18
18
ENDCHAR
STARTCHAR uni2547
ENCODING 9543
SWIDTH 411 0
DWIDTH 8 0
BBX 8 14 0 -3
BITMAP
18
18
18
18
18
18
FF
FF
10
10
10
10
10
10
ENDCHAR
STARTCHAR uni2548
ENCODING 9544
SWIDTH 411 0
DWIDTH 8 0
BBX 8 14 0 -3
BITMAP
10
10
10
10
10
10
FF
FF
18
18
18
18
18
18
ENDCHAR
STARTCHAR uni2549
ENCODING 9545
SWIDTH 411 0
DWIDTH 8 0
BBX 8 14 0 -3
BITMAP
18
18
18
18
18
18
FF
F8
18
18
18
18
18
18
ENDCHAR
STARTCHAR uni254A
ENCODING 9546
SWIDTH 411 0
DWIDTH 8 0
BBX 8 14 0 -3
BITMAP
18
18
18
18
18
18
FF
1F
18
18
18
18
18
18
ENDCHAR
STARTCHAR uni254B
ENCODING 9547
SWIDTH 411 0
DWIDTH 8 0
BBX 8 14 0 -3
BITMAP
18
18
18
18
18
18
FF
FF
18
18
18
18
18
18
ENDCHAR
STARTCHAR SF430000
ENCODING 9552
SWIDTH 411 0
DWIDTH 8 0
BBX 8 3 0 3
BITMAP
FF
00
FF
ENDCHAR
STARTCHAR SF240000
ENCODING 9553
SWIDTH 411 0
DWIDTH 8 0
BBX 3 14 2 -3
BITMAP
A0
A0
A0
A0
A0
A0
A0
A0
A0
A0
A0
A0
A0
A0
ENDCHAR
STARTCHAR SF510000
ENCODING 9554
SWIDTH 411 0
DWIDTH 8 0
BBX 5 9 3 -3
BITMAP
F8
80
F8
80
80
80
80
80
80
ENDCHAR
STARTCHAR SF520000
ENCODING 9555
SWIDTH 411 0
DWIDTH 8 0
BBX 6 8 2 -3
BITMAP
FC
A0
A0
A0
A0
A0
A0
A0
ENDCHAR
STARTCHAR SF390000
ENCODING 9556
SWIDTH 411 0
DWIDTH 8 0
BBX 6 9 2 -3
BITMAP
FC
80
BC
A0
A0
A0
A0
A0
A0
ENDCHAR
STARTCHAR SF220000
ENCODING 9557
SWIDTH 411 0
DWIDTH 8 0
BBX 4 9 0 -3
BITMAP
F0
10
F0
10
10
10
10
10
10
ENDCHAR
STARTCHAR SF210000
ENCODING 9558
SWIDTH 411 0
DWIDTH 8 0
BBX 5 8 0 -3
BITMAP
F8
28
28
28
28
28
28
28
ENDCHAR
STARTCHAR SF250000
ENCODING 9559
SWIDTH 411 0
DWIDTH 8 0
BBX 5 9 0 -3
BITMAP
F8
08
E8
28
28
28
28
28
28
ENDCHAR
STARTCHAR SF500000
ENCODING 9560
SWIDTH 411 0
DWIDTH 8 0
BBX 5 8 3 3
BITMAP
80
80
80
80
80
F8
80
F8
ENDCHAR
STARTCHAR SF490000
ENCODING 9561
SWIDTH 411 0
DWIDTH 8 0
BBX 6 7 2 4
BITMAP
A0
A0
A0
A0
A0
A0
FC
ENDCHAR
STARTCHAR SF380000
ENCODING 9562
SWIDTH 411 0
DWIDTH 8 0
BBX 6 8 2 3
BITMAP
A0
A0
A0
A0
A0
BC
80
FC
ENDCHAR
STARTCHAR SF280000
ENCODING 9563
SWIDTH 411 0
DWIDTH 8 0
BBX 4 8 0 3
BITMAP
10
10
10
10
10
F0
10
F0
ENDCHAR
STARTCHAR SF270000
ENCODING 9564
SWIDTH 411 0
DWIDTH 8 0
BBX 5 7 0 4
BITMAP
28
28
28
28
28
28
F8
ENDCHAR
STARTCHAR SF260000
ENCODING 9565
SWIDTH 411 0
DWIDTH 8 0
BBX 5 8 0 3
BITMAP
28
28
28
28
28
E8
08
F8
ENDCHAR
STARTCHAR SF360000
ENCODING 9566
SWIDTH 411 0
DWIDTH 8 0
BBX 5 14 3 -3
BITMAP
80
80
80
80
80
F8
80
F8
80
80
80
80
80
80
ENDCHAR
STARTCHAR SF370000
ENCODING 9567
SWIDTH 411 0
DWIDTH 8 0
BBX 6 14 2 -3
BITMAP
A0
A0
A0
A0
A0
A0
BC
A0
A0
A0
A0
A0
A0
A0
ENDCHAR
STARTCHAR SF420000
ENCODING 9568
SWIDTH 411 0
DWIDTH 8 0
BBX 6 14 2 -3
BITMAP
A0
A0
A0
A0
A0
BC
80
BC
A0
A0
A0
A0
A0
A0
ENDCHAR
STARTCHAR SF190000
ENCODING 9569
SWIDTH 411 0
DWIDTH 8 0
BBX 4 14 0 -3
BITMAP
10
10
10
10
10
F0
10
F0
10
10
10
10
10
10
ENDCHAR
STARTCHAR SF200000
ENCODING 9570
SWIDTH 411 0
DWIDTH 8 0
BBX 5 14 0 -3
BITMAP
28
28
28
28
28
28
E8
28
28
28
28
28
28
28
ENDCHAR
STARTCHAR SF230000
ENCODING 9571
SWIDTH 411 0
DWIDTH 8 0
BBX 5 14 0 -3
BITMAP
28
28
28
28
28
E8
08
E8
28
28
28
28
28
28
ENDCHAR
STARTCHAR SF470000
ENCODING 9572
SWIDTH 411 0
DWIDTH 8 0
BBX 8 9 0 -3
BITMAP
FF
00
FF
10
10
10
10
10
10
ENDCHAR
STARTCHAR SF480000
ENCODING 9573
SWIDTH 411 0
DWIDTH 8 0
BBX 8 8 0 -3
BITMAP
FF
28
28
28
28
28
28
28
ENDCHAR
STARTCHAR SF410000
ENCODING 9574
SWIDTH 411 0
DWIDTH 8 0
BBX 8 9 0 -3
BITMAP
FF
00
EF
28
28
28
28
28
28
ENDCHAR
STARTCHAR SF450000
ENCODING 9575
SWIDTH 411 0
DWIDTH 8 0
BBX 8 8 0 3
BITMAP
10
10
10
10
10
FF
00
FF
ENDCHAR
STARTCHAR SF460000
ENCODING 9576
SWIDTH 411 0
DWIDTH 8 0
BBX 8 7 0 4
BITMAP
28
28
28
28
28
28
FF
ENDCHAR
STARTCHAR SF400000
ENCODING 9577
SWIDTH 411 0
DWIDTH 8 0
BBX 8 8 0 3
BITMAP
28
28
28
28
28
EF
00
FF
ENDCHAR
STARTCHAR SF540000
ENCODING 9578
SWIDTH 411 0
DWIDTH 8 0
BBX 8 14 0 -3
BITMAP
10
10
10
10
10
FF
10
FF
10
10
10
10
10
10
ENDCHAR
STARTCHAR SF530000
ENCODING 9579
SWIDTH 411 0
DWIDTH 8 0
BBX 8 14 0 -3
BITMAP
28
28
28
28
28
28
FF
28
28
28
28
28
28
28
ENDCHAR
STARTCHAR SF440000
ENCODING 9580
SWIDTH 411 0
DWIDTH 8 0
BBX 8 14 0 -3
BITMAP
28
28
28
28
28
EF
00
EF
28
28
28
28
28
28
ENDCHAR
STARTCHAR upblock
ENCODING 9600
SWIDTH 411 0
DWIDTH 8 0
BBX 8 7 0 4
BITMAP
FF
FF
FF
FF
FF
FF
FF
ENDCHAR
STARTCHAR uni2581
ENCODING 9601
SWIDTH 411 0
DWIDTH 8 0
BBX 8 2 0 -3
BITMAP
FF
FF
ENDCHAR
STARTCHAR uni2582
ENCODING 9602
SWIDTH 411 0
DWIDTH 8 0
BBX 8 3 0 -3
BITMAP
FF
FF
FF
ENDCHAR
STARTCHAR uni2583
ENCODING 9603
SWIDTH 411 0
DWIDTH 8 0
BBX 8 5 0 -3
BITMAP
FF
FF
FF
FF
FF
ENDCHAR
STARTCHAR dnblock
ENCODING 9604
SWIDTH 411 0
DWIDTH 8 0
BBX 8 7 0 -3
BITMAP
FF
FF
FF
FF
FF
FF
FF
ENDCHAR
STARTCHAR uni2585
ENCODING 9605
SWIDTH 411 0
DWIDTH 8 0
BBX 8 9 0 -3
BITMAP
FF
FF
FF
FF
FF
FF
FF
FF
FF
ENDCHAR
STARTCHAR uni2586
ENCODING 9606
SWIDTH 411 0
DWIDTH 8 0
BBX 8 10 0 -3
BITMAP
FF
FF
FF
FF
FF
FF
FF
FF
FF
FF
ENDCHAR
STARTCHAR uni2587
ENCODING 9607
SWIDTH 411 0
DWIDTH 8 0
BBX 8 12 0 -3
BITMAP
FF
FF
FF
FF
FF
FF
FF
FF
FF
FF
FF
FF
ENDCHAR
STARTCHAR block
ENCODING 9608
SWIDTH 411 0
DWIDTH 8 0
BBX 8 14 0 -3
BITMAP
FF
FF
FF
FF
FF
FF
FF
FF
FF
FF
FF
FF
FF
FF
ENDCHAR
STARTCHAR lfblock
ENCODING 9612
SWIDTH 411 0
DWIDTH 8 0
BBX 4 14 0 -3
BITMAP
F0
F0
F0
F0
F0
F0
F0
F0
F0
F0
F0
F0
F0
F0
ENDCHAR
STARTCHAR rtblock
ENCODING 9616
SWIDTH 411 0
DWIDTH 8 0
BBX 4 14 4 -3
BITMAP
F0
F0
F0
F0
F0
F0
F0
F0
F0
F0
F0
F0
F0
F0
ENDCHAR
STARTCHAR ltshade
ENCODING 9617
SWIDTH 411 0
DWIDTH 8 0
BBX 7 14 0 -3
BITMAP
88
22
88
22
88
22
88
22
88
22
88
22
88
22
ENDCHAR
STARTCHAR shade
ENCODING 9618
SWIDTH 411 0
DWIDTH 8 0
BBX 8 14 0 -3
BITMAP
AA
55
AA
55
AA
55
AA
55
AA
55
AA
55
AA
55
ENDCHAR
STARTCHAR dkshade
ENCODING 9619
SWIDTH 411 0
DWIDTH 8 0
BBX 8 14 0 -3
BITMAP
EE
BB
EE
BB
EE
BB
EE
BB
EE
BB
EE
BB
EE
BB
ENDCHAR
STARTCHAR uni2596
ENCODING 9622
SWIDTH 411 0
DWIDTH 8 0
BBX 4 7 0 -3
BITMAP
F0
F0
F0
F0
F0
F0
F0
ENDCHAR
STARTCHAR uni2597
ENCODING 9623
SWIDTH 411 0
DWIDTH 8 0
BBX 4 7 4 -3
BITMAP
F0
F0
F0
F0
F0
F0
F0
ENDCHAR
STARTCHAR uni2598
ENCODING 9624
SWIDTH 411 0
DWIDTH 8 0
BBX 4 7 0 4
BITMAP
F0
F0
F0
F0
F0
F0
F0
ENDCHAR
STARTCHAR uni2599
ENCODING 9625
SWIDTH 411 0
DWIDTH 8 0
BBX 8 14 0 -3
BITMAP
F0
F0
F0
F0
F0
F0
F0
FF
FF
FF
FF
FF
FF
FF
ENDCHAR
STARTCHAR uni259A
ENCODING 9626
SWIDTH 411 0
DWIDTH 8 0
BBX 8 14 0 -3
BITMAP
F0
F0
F0
F0
F0
F0
F0
0F
0F
0F
0F
0F
0F
0F
ENDCHAR
STARTCHAR uni259B
ENCODING 9627
SWIDTH 411 0
DWIDTH 8 0
BBX 8 14 0 -3
BITMAP
FF
FF
FF
FF
FF
FF
FF
F0
F0
F0
F0
F0
F0
F0
ENDCHAR
STARTCHAR uni259C
ENCODING 9628
SWIDTH 411 0
DWIDTH 8 0
BBX 8 14 0 -3
BITMAP
FF
FF
FF
FF
FF
FF
FF
0F
0F
0F
0F
0F
0F
0F
ENDCHAR
STARTCHAR uni259D
ENCODING 9629
SWIDTH 411 0
DWIDTH 8 0
BBX 4 7 4 4
BITMAP
F0
F0
F0
F0
F0
F0
F0
ENDCHAR
STARTCHAR uni259E
ENCODING 9630
SWIDTH 411 0
DWIDTH 8 0
BBX 8 14 0 -3
BITMAP
0F
0F
0F
0F
0F
0F
0F
F0
F0
F0
F0
F0
F0
F0
ENDCHAR
STARTCHAR uni259F
ENCODING 9631
SWIDTH 411 0
DWIDTH 8 0
BBX 8 14 0 -3
BITMAP
0F
0F
0F
0F
0F
0F
0F
FF
FF
FF
FF
FF
FF
FF
ENDCHAR
STARTCHAR filledbox
ENCODING 9632
SWIDTH 411 0
DWIDTH 8 0
BBX 4 6 2 1
BITMAP
F0
F0
F0
F0
F0
F0
ENDCHAR
STARTCHAR filledrect
ENCODING 9644
SWIDTH 411 0
DWIDTH 8 0
BBX 6 4 1 -1
BITMAP
FC
FC
FC
FC
ENDCHAR
STARTCHAR uni25AE
ENCODING 9646
SWIDTH 411 0
DWIDTH 8 0
BBX 6 10 1 -1
BITMAP
FC
FC
FC
FC
FC
FC
FC
FC
FC
FC
ENDCHAR
STARTCHAR triagup
ENCODING 9650
SWIDTH 411 0
DWIDTH 8 0
BBX 7 8 0 0
BITMAP
10
10
38
38
7C
7C
FE
FE
ENDCHAR
STARTCHAR uni25B6
ENCODING 9654
SWIDTH 411 0
DWIDTH 8 0
BBX 8 7 0 1
BITMAP
C0
F0
FC
FF
FC
F0
C0
ENDCHAR
STARTCHAR triagdn
ENCODING 9660
SWIDTH 411 0
DWIDTH 8 0
BBX 7 8 0 0
BITMAP
FE
FE
7C
7C
38
38
10
10
ENDCHAR
STARTCHAR uni25C0
ENCODING 9664
SWIDTH 411 0
DWIDTH 8 0
BBX 8 7 0 1
BITMAP
03
0F
3F
FF
3F
0F
03
ENDCHAR
STARTCHAR blackdiamond
ENCODING 9670
SWIDTH 411 0
DWIDTH 8 0
BBX 7 7 0 0
BITMAP
10
38
7C
FE
7C
38
10
ENDCHAR
STARTCHAR lozenge
ENCODING 9674
SWIDTH 411 0
DWIDTH 8 0
BBX 7 7 0 0
BITMAP
10
28
44
82
44
28
10
ENDCHAR
STARTCHAR circle
ENCODING 9675
SWIDTH 411 0
DWIDTH 8 0
BBX 4 4 2 2
BITMAP
60
90
90
60
ENDCHAR
STARTCHAR invbullet
ENCODING 9688
SWIDTH 411 0
DWIDTH 8 0
BBX 8 14 0 -3
BITMAP
FF
FF
FF
FF
FF
E7
C3
C3
E7
FF
FF
FF
FF
FF
ENDCHAR
STARTCHAR invcircle
ENCODING 9689
SWIDTH 411 0
DWIDTH 8 0
BBX 8 14 0 -3
BITMAP
FF
FF
FF
FF
FF
E7
DB
DB
E7
FF
FF
FF
FF
FF
ENDCHAR
STARTCHAR smileface
ENCODING 9786
SWIDTH 411 0
DWIDTH 8 0
BBX 7 10 0 -1
BITMAP
7C
82
AA
82
82
BA
92
82
82
7C
ENDCHAR
STARTCHAR invsmileface
ENCODING 9787
SWIDTH 411 0
DWIDTH 8 0
BBX 7 10 0 -1
BITMAP
7C
FE
D6
FE
FE
C6
EE
FE
FE
7C
ENDCHAR
STARTCHAR sun
ENCODING 9788
SWIDTH 411 0
DWIDTH 8 0
BBX 7 9 0 -1
BITMAP
10
92
54
38
EE
38
54
92
10
ENDCHAR
STARTCHAR female
ENCODING 9792
SWIDTH 411 0
DWIDTH 8 0
BBX 5 10 1 -1
BITMAP
70
88
88
88
88
70
20
F8
20
20
ENDCHAR
STARTCHAR male
ENCODING 9794
SWIDTH 411 0
DWIDTH 8 0
BBX 6 10 1 -1
BITMAP
3C
0C
14
24
70
88
88
88
88
70
ENDCHAR
STARTCHAR spade
ENCODING 9824
SWIDTH 411 0
DWIDTH 8 0
BBX 7 10 0 -1
BITMAP
10
10
38
7C
FE
FE
7C
10
10
38
ENDCHAR
STARTCHAR club
ENCODING 9827
SWIDTH 411 0
DWIDTH 8 0
BBX 7 10 0 -1
BITMAP
10
38
38
10
54
FE
FE
54
10
38
ENDCHAR
STARTCHAR heart
ENCODING 9829
SWIDTH 411 0
DWIDTH 8 0
BBX 7 8 0 0
BITMAP
6C
FE
FE
FE
FE
7C
38
10
ENDCHAR
STARTCHAR diamond
ENCODING 9830
SWIDTH 411 0
DWIDTH 8 0
BBX 7 7 0 0
BITMAP
10
38
7C
FE
7C
38
10
ENDCHAR
STARTCHAR musicalnote
ENCODING 9834
SWIDTH 411 0
DWIDTH 8 0
BBX 7 10 0 -1
BITMAP
3E
22
3E
20
20
20
20
20
20
C0
ENDCHAR
STARTCHAR musicalnotedbl
ENCODING 9835
SWIDTH 411 0
DWIDTH 8 0
BBX 7 11 0 -2
BITMAP
7E
42
7E
42
42
42
42
42
42
44
80
ENDCHAR
STARTCHAR uniE0B0
ENCODING 57520
SWIDTH 571 0
DWIDTH 8 0
BBX 7 14 0 -3
BITMAP
80
C0
E0
F0
F8
FC
FE
FE
FC
F8
F0
E0
C0
80
ENDCHAR
STARTCHAR uniE0B1
ENCODING 57521
SWIDTH 571 0
DWIDTH 8 0
BBX 7 14 0 -3
BITMAP
80
40
20
10
08
04
02
02
04
08
10
20
40
80
ENDCHAR
STARTCHAR uniE0B2
ENCODING 57522
SWIDTH 571 0
DWIDTH 8 0
BBX 7 14 1 -3
BITMAP
02
06
0E
1E
3E
7E
FE
FE
7E
3E
1E
0E
06
02
ENDCHAR
STARTCHAR uniE0B3
ENCODING 57523
SWIDTH 571 0
DWIDTH 8 0
BBX 7 14 1 -3
BITMAP
02
04
08
10
20
40
80
80
40
20
10
08
04
02
ENDCHAR
STARTCHAR uniF6BE
ENCODING 63166
SWIDTH 411 0
DWIDTH 8 0
BBX 5 9 1 -3
BITMAP
18
08
08
08
08
08
88
88
70
ENDCHAR
STARTCHAR uniFFFD
ENCODING 65533
SWIDTH 411 0
DWIDTH 8 0
BBX 6 10 1 -1
BITMAP
FC
84
84
84
84
84
84
84
84
FC
ENDCHAR
ENDFONT
